<?xml version="1.0" encoding="UTF-8" standalone="no"?>
<svg
   xmlns:dc="http://purl.org/dc/elements/1.1/"
   xmlns:cc="http://creativecommons.org/ns#"
   xmlns:rdf="http://www.w3.org/1999/02/22-rdf-syntax-ns#"
   xmlns:svg="http://www.w3.org/2000/svg"
   xmlns="http://www.w3.org/2000/svg"
   xmlns:sodipodi="http://sodipodi.sourceforge.net/DTD/sodipodi-0.dtd"
   xmlns:inkscape="http://www.inkscape.org/namespaces/inkscape"
   height="78.414543"
   version="1.1"
   width="78.398697"
   id="svg2"
   inkscape:version="0.48.2 r9819"
   sodipodi:docname="activity-cuadraditos.svg">
  <metadata
     id="metadata1315">
    <rdf:RDF>
      <cc:Work
         rdf:about="">
        <dc:format>image/svg+xml</dc:format>
        <dc:type
           rdf:resource="http://purl.org/dc/dcmitype/StillImage" />
      </cc:Work>
    </rdf:RDF>
  </metadata>
  <defs
     id="defs1313" />
  <sodipodi:namedview
     pagecolor="#ffffff"
     bordercolor="#666666"
     borderopacity="1"
     objecttolerance="10"
     gridtolerance="10"
     guidetolerance="10"
     inkscape:pageopacity="0"
     inkscape:pageshadow="2"
     inkscape:window-width="640"
     inkscape:window-height="480"
     id="namedview1311"
     showgrid="false"
     fit-margin-top="0"
     fit-margin-left="0"
     fit-margin-right="0"
     fit-margin-bottom="0"
     inkscape:zoom="2.36"
     inkscape:cx="42.156486"
     inkscape:cy="27.542276"
     inkscape:window-x="0"
     inkscape:window-y="24"
     inkscape:window-maximized="0"
     inkscape:current-layer="svg2" />
  <g
     transform="matrix(0.27027027,0,0,0.27027027,0.00343013,1.8919999e-7)"
     id="g6">
    <g
       id="layer1-8"
       style="fill:#00d644;fill-opacity:1;stroke:#00d644;stroke-width:2.46246886;stroke-miterlimit:4;stroke-opacity:1;stroke-dasharray:none"
       transform="matrix(-0.20129077,0,0,-0.20192619,48.394961,66.945737)" />
    <g
       id="g29"
       style="fill:#00d644;fill-opacity:1;stroke:#00d644;stroke-width:2.46246886;stroke-miterlimit:4;stroke-opacity:1;stroke-dasharray:none"
       transform="matrix(0,-0.20129076,0.20192619,0,3.1792627,48.519963)" />
    <g
       id="g348"
       style="fill:#00d644;fill-opacity:1;stroke:#00d644;stroke-width:2.46246886;stroke-miterlimit:4;stroke-opacity:1;stroke-dasharray:none"
       transform="matrix(0,0.20129076,-0.20192619,0,66.820735,21.73004)" />
    <g
       id="g374"
       style="fill:#00d644;fill-opacity:1;stroke:#00d644;stroke-width:2.46246886;stroke-miterlimit:4;stroke-opacity:1;stroke-dasharray:none"
       transform="matrix(0.20129077,0,0,0.20192619,21.605037,3.304265)" />
  </g>
  <g
     transform="matrix(-0.27027027,0,0,-0.27027027,27.030457,2.7027032)"
     id="g13" />
  <g
     transform="matrix(0,-0.27027027,0.27027027,0,27.030457,2.7027032)"
     id="g16" />
  <g
     transform="matrix(-0.27027027,0,0,-0.27027027,35.138565,2.7027032)"
     id="g20" />
  <g
     transform="matrix(0,-0.27027027,0.27027027,0,35.138565,2.7027032)"
     id="g24" />
  <g
     transform="matrix(-0.27027027,0,0,-0.27027027,54.057484,2.7027032)"
     id="g27" />
  <g
     transform="matrix(0,-0.27027027,0.27027027,0,54.057484,2.7027032)"
     id="g31" />
  <g
     transform="matrix(0.27027027,0,0,0.27027027,59.462889,1.8919999e-7)"
     id="g35">
    <g
       id="g37"
       style="fill:#00d644;fill-opacity:1;stroke:#00d644;stroke-width:2.46246886;stroke-miterlimit:4;stroke-opacity:1;stroke-dasharray:none"
       transform="matrix(-0.20129077,0,0,-0.20192619,48.394961,66.945737)" />
    <g
       id="g39"
       style="fill:#00d644;fill-opacity:1;stroke:#00d644;stroke-width:2.46246886;stroke-miterlimit:4;stroke-opacity:1;stroke-dasharray:none"
       transform="matrix(0,-0.20129076,0.20192619,0,3.1792627,48.519963)" />
    <g
       id="g41"
       style="fill:#00d644;fill-opacity:1;stroke:#00d644;stroke-width:2.46246886;stroke-miterlimit:4;stroke-opacity:1;stroke-dasharray:none"
       transform="matrix(0,0.20129076,-0.20192619,0,66.820735,21.73004)" />
    <g
       id="g43"
       style="fill:#00d644;fill-opacity:1;stroke:#00d644;stroke-width:2.46246886;stroke-miterlimit:4;stroke-opacity:1;stroke-dasharray:none"
       transform="matrix(0.20129077,0,0,0.20192619,21.605037,3.304265)" />
  </g>
  <g
     transform="matrix(0,0.27027027,-0.27027027,0,27.030457,2.7027032)"
     id="g47" />
  <g
     transform="matrix(0,-0.27027027,0.27027027,0,27.030457,5.4054052)"
     id="g50" />
  <g
     transform="matrix(0.27027027,0,0,0.27027027,32.435862,2.7027032)"
     id="g54" />
  <g
     transform="matrix(0.27027027,0,0,0.27027027,40.54397,2.7027032)"
     id="g57" />
  <g
     transform="matrix(0.27027027,0,0,0.27027027,51.354781,2.7027032)"
     id="g61" />
  <g
     transform="matrix(0.27027027,0,0,0.27027027,5.4088351,5.4054052)"
     id="g65">
    <path
       id="rect3802"
       style="fill:#00d644;fill-opacity:1;stroke:none"
       d="m 8.9611483,0.02239227 12.0777037,0 C 26.003328,0.02239227 30,4.0190644 30,8.9835405 l 0,12.0777035 c 0,4.964476 -3.996672,8.961148 -8.961148,8.961148 l -12.0777037,0 C 3.9966721,30.022392 0,26.02572 0,21.061244 L 0,8.9835405 C 0,4.0190644 3.9966721,0.02239227 8.9611483,0.02239227 z M 49.966245,40.130597 l -9.980238,0 0,9.983615 c 0,0 10.430449,0.737584 9.980238,-9.983615 z m -9.980236,-0.01959 0,9.994404 -9.994403,0 0,-9.994404 z m -9.994405,0 0,9.994404 -9.994404,0 0,-9.994404 z m -9.994402,0 0,9.994404 -9.994403,0 0,-9.994404 z m -9.994401,0 0,9.994404 -9.99440478,0 0,-9.994404 z m -9.99440277,0 0,9.994404 -9.99440343,0 0,-9.994404 z m -10.01399223,9.980235 0,-9.980237 -9.983614,0 c 0,0 -0.737581,10.430449 9.983614,9.980237 z m 49.991603,-19.974638 9.994405,0 0,9.994406 -9.994405,0 z m -59.966422,0 9.9944018,0 0,9.994406 -9.9944018,0 z m 59.966422,-9.994405 9.994405,0 0,9.994407 -9.994405,0 z m -59.966422,0 9.9944018,0 0,9.994407 -9.9944018,0 z m 59.966422,-9.9944 9.994405,0 0,9.994402 -9.994405,0 z m -59.966422,0 9.9944018,0 0,9.994402 -9.9944018,0 z m 59.966422,-9.99440414 9.994405,0 0,9.99440614 -9.994405,0 z m -59.966422,0 9.9944018,0 0,9.99440614 -9.9944018,0 z m 59.966422,-9.99440546 9.994405,0 0,9.99440445 -9.994405,0 z m -59.966422,0 9.9944018,0 0,9.99440445 -9.9944018,0 z m 59.986012,-9.9802344 0,9.9802381 9.983613,0 c 0,0 0.737582,-10.4304501 -9.983613,-9.9802381 z m -0.01959,-0.01418 0,9.9944044 -9.994403,0 0,-9.9944044 z m -9.994405,0 0,9.9944044 -9.994404,0 0,-9.9944044 z m -9.994402,0 0,9.9944044 -9.994403,0 0,-9.9944044 z m -9.994401,0 0,9.9944044 -9.99440472,0 0,-9.9944044 z m -9.9944027,0 0,9.9944044 -9.9944034,0 0,-9.9944044 z m -19.9746383,9.9748216 9.9802377,0 0,-9.9836146 c 0,0 -10.4304487,-0.737583 -9.9802377,9.9836146 z" />
  </g>
  <g
     transform="matrix(0,0.27027027,-0.27027027,0,24.327754,5.4054052)"
     id="g68" />
  <g
     transform="matrix(0.27027027,0,0,0.27027027,24.327754,5.4054052)"
     id="g72" />
  <g
     transform="matrix(0.27027027,0,0,0.27027027,27.030457,5.4054052)"
     id="g76" />
  <g
     transform="matrix(0.27027027,0,0,0.27027027,32.435862,5.4054052)"
     id="g80" />
  <g
     transform="matrix(0.27027027,0,0,0.27027027,37.841268,5.4054052)"
     id="g84" />
  <g
     transform="matrix(0.27027027,0,0,0.27027027,45.949376,5.4054052)"
     id="g88" />
  <g
     transform="matrix(0.27027027,0,0,0.27027027,64.868295,5.4054052)"
     id="g92">
    <path
       id="rect94"
       style="fill:#00d644;fill-opacity:1;stroke:none"
       d="m 8.9611483,0.02239227 12.0777037,0 C 26.003328,0.02239227 30,4.0190644 30,8.9835405 l 0,12.0777035 c 0,4.964476 -3.996672,8.961148 -8.961148,8.961148 l -12.0777037,0 C 3.9966721,30.022392 0,26.02572 0,21.061244 L 0,8.9835405 C 0,4.0190644 3.9966721,0.02239227 8.9611483,0.02239227 z M 49.966241,40.130597 l -9.980238,0 0,9.983615 c 0,0 10.430449,0.737584 9.980238,-9.983615 z m -9.980236,-0.01959 0,9.994404 -9.994402,0 0,-9.994404 z m -9.994404,0 0,9.994404 -9.994405,0 0,-9.994404 z m -9.994403,0 0,9.994404 -9.994403,0 0,-9.994404 z m -9.994401,0 0,9.994404 -9.99440459,0 0,-9.994404 z m -9.99440258,0 0,9.994404 -9.99440342,0 0,-9.994404 z m -10.01399242,9.980235 0,-9.980237 -9.983614,0 c 0,0 -0.737581,10.430449 9.983614,9.980237 z m 49.991603,-19.974638 9.994405,0 0,9.994406 -9.994405,0 z m -59.966422,0 9.994402,0 0,9.994406 -9.994402,0 z m 59.966422,-9.994405 9.994405,0 0,9.994407 -9.994405,0 z m -59.966422,0 9.994402,0 0,9.994407 -9.994402,0 z m 59.966422,-9.9944 9.994405,0 0,9.994402 -9.994405,0 z m -59.966422,0 9.994402,0 0,9.994402 -9.994402,0 z m 59.966422,-9.99440414 9.994405,0 0,9.99440614 -9.994405,0 z m -59.966422,0 9.994402,0 0,9.99440614 -9.994402,0 z m 59.966422,-9.99440546 9.994405,0 0,9.99440445 -9.994405,0 z m -59.966422,0 9.994402,0 0,9.99440445 -9.994402,0 z m 59.986012,-9.9802344 0,9.9802381 9.983614,0 c 0,0 0.737581,-10.4304501 -9.983614,-9.9802381 z m -0.01959,-0.01418 0,9.9944044 -9.994402,0 0,-9.9944044 z m -9.994404,0 0,9.9944044 -9.994405,0 0,-9.9944044 z m -9.994402,0 0,9.9944044 -9.994404,0 0,-9.9944044 z m -9.994402,0 0,9.9944044 -9.99440453,0 0,-9.9944044 z m -9.99440251,0 0,9.9944044 -9.99440349,0 0,-9.9944044 z m -19.97463849,9.9748216 9.9802379,0 0,-9.9836146 c 0,0 -10.4304489,-0.737583 -9.9802379,9.9836146 z" />
  </g>
  <g
     transform="matrix(0.27027027,0,0,0.27027027,40.54397,8.1081082)"
     id="g96" />
  <g
     transform="matrix(0.27027027,0,0,0.27027027,48.652078,8.1081082)"
     id="g100" />
  <g
     transform="matrix(-0.27027027,0,0,-0.27027027,24.327754,13.513513)"
     id="g104" />
  <g
     transform="matrix(0,0.27027027,-0.27027027,0,27.030457,10.810811)"
     id="g108" />
  <g
     transform="matrix(-0.27027027,0,0,-0.27027027,29.73316,13.513513)"
     id="g112" />
  <g
     transform="matrix(0,0.27027027,-0.27027027,0,32.435862,10.810811)"
     id="g116" />
  <g
     transform="matrix(0,-0.27027027,0.27027027,0,32.435862,13.513513)"
     id="g120" />
  <g
     transform="matrix(-0.27027027,0,0,-0.27027027,40.54397,13.513513)"
     id="g124" />
  <g
     transform="matrix(-0.27027027,0,0,-0.27027027,48.652078,13.513513)"
     id="g128" />
  <g
     transform="matrix(0.27027027,0,0,0.27027027,21.625051,13.513513)"
     id="g132" />
  <g
     transform="matrix(0.27027027,0,0,0.27027027,27.030457,13.513513)"
     id="g136" />
  <g
     transform="matrix(0,0.27027027,-0.27027027,0,37.841268,13.513513)"
     id="g140" />
  <g
     transform="matrix(0,-0.27027027,0.27027027,0,37.841268,16.216216)"
     id="g144" />
  <g
     transform="matrix(-0.27027027,0,0,-0.27027027,45.949376,16.216216)"
     id="g148" />
  <g
     transform="matrix(0.27027027,0,0,0.27027027,45.949376,13.513513)"
     id="g152" />
  <g
     transform="matrix(0.27027027,0,0,0.27027027,51.354781,13.513513)"
     id="g156" />
  <g
     transform="matrix(0.27027027,0,0,0.27027027,21.625051,16.216216)"
     id="g160" />
  <g
     transform="matrix(0.27027027,0,0,0.27027027,27.030457,16.216216)"
     id="g164" />
  <g
     transform="matrix(0.27027027,0,0,0.27027027,32.435862,16.216216)"
     id="g168" />
  <g
     transform="matrix(0.27027027,0,0,0.27027027,37.841268,16.216216)"
     id="g172" />
  <g
     transform="matrix(0.27027027,0,0,0.27027027,43.246673,16.216216)"
     id="g176" />
  <g
     transform="matrix(0.27027027,0,0,0.27027027,48.652078,16.216216)"
     id="g180" />
  <g
     transform="matrix(0.27027027,0,0,0.27027027,54.057484,16.216216)"
     id="g184" />
  <g
     transform="matrix(0,0.27027027,-0.27027027,0,29.73316,18.918919)"
     id="g188" />
  <g
     transform="matrix(0,-0.27027027,0.27027027,0,29.73316,21.621621)"
     id="g192" />
  <g
     transform="matrix(-0.27027027,0,0,-0.27027027,37.841268,21.621621)"
     id="g196" />
  <g
     transform="matrix(0,-0.27027027,0.27027027,0,37.841268,21.621621)"
     id="g200" />
  <g
     transform="matrix(0.27027027,0,0,0.27027027,43.246673,18.918919)"
     id="g204" />
  <g
     transform="matrix(0.27027027,0,0,0.27027027,2.7061331,21.621621)"
     id="g208" />
  <g
     transform="matrix(-0.27027027,0,0,-0.27027027,13.516943,24.324324)"
     id="g212" />
  <g
     transform="matrix(0.27027027,0,0,0.27027027,16.219646,21.621621)"
     id="g216" />
  <g
     transform="matrix(-0.27027027,0,0,-0.27027027,24.327754,24.324324)"
     id="g220" />
  <g
     transform="matrix(-0.27027027,0,0,-0.27027027,27.030457,24.324324)"
     id="g224" />
  <g
     transform="matrix(0.27027027,0,0,0.27027027,27.030457,21.621621)"
     id="g228" />
  <g
     transform="matrix(0,-0.27027027,0.27027027,0,29.73316,24.324324)"
     id="g231" />
  <g
     transform="matrix(0,0.27027027,-0.27027027,0,37.841268,21.621621)"
     id="g235" />
  <g
     transform="matrix(0.27027027,0,0,0.27027027,37.841268,21.621621)"
     id="g239" />
  <g
     transform="matrix(0.27027027,0,0,0.27027027,43.246673,21.621621)"
     id="g243" />
  <g
     transform="matrix(-0.27027027,0,0,-0.27027027,54.057484,24.324324)"
     id="g247" />
  <g
     transform="matrix(0,0.27027027,-0.27027027,0,56.760187,21.621621)"
     id="g251" />
  <g
     transform="matrix(0,-0.27027027,0.27027027,0,56.760187,24.324324)"
     id="g255" />
  <g
     transform="matrix(-0.27027027,0,0,-0.27027027,64.868295,24.324324)"
     id="g259" />
  <g
     transform="matrix(0,-0.27027027,0.27027027,0,64.868295,24.324324)"
     id="g263" />
  <g
     transform="matrix(-0.27027027,0,0,-0.27027027,72.976403,24.324324)"
     id="g267" />
  <g
     transform="matrix(-0.27027027,0,0,-0.27027027,8.1115381,27.027027)"
     id="g271" />
  <g
     transform="matrix(-0.27027027,0,0,-0.27027027,10.814241,27.027027)"
     id="g275" />
  <g
     transform="matrix(0.27027027,0,0,0.27027027,10.814241,24.324324)"
     id="g279" />
  <g
     transform="matrix(0,0.27027027,-0.27027027,0,24.327754,24.324324)"
     id="g283" />
  <g
     transform="matrix(0.27027027,0,0,0.27027027,24.327754,24.324324)"
     id="g287" />
  <g
     transform="matrix(0.27027027,0,0,0.27027027,27.030457,24.324324)"
     id="g291" />
  <g
     transform="matrix(0.27027027,0,0,0.27027027,29.73316,24.324324)"
     id="g295" />
  <g
     transform="matrix(0,-0.27027027,0.27027027,0,32.435862,27.027027)"
     id="g299" />
  <g
     transform="matrix(0.27027027,0,0,0.27027027,43.246673,24.324324)"
     id="g303" />
  <g
     transform="matrix(0,0.27027027,-0.27027027,0,51.354781,24.324324)"
     id="g307" />
  <g
     transform="matrix(0,-0.27027027,0.27027027,0,51.354781,27.027027)"
     id="g311" />
  <g
     transform="matrix(0.27027027,0,0,0.27027027,62.165592,24.324324)"
     id="g315" />
  <g
     transform="matrix(-0.27027027,0,0,-0.27027027,70.2737,27.027027)"
     id="g319" />
  <g
     transform="matrix(0.27027027,0,0,0.27027027,70.2737,24.324324)"
     id="g323" />
  <g
     transform="matrix(0,0.27027027,-0.27027027,0,75.679105,24.324324)"
     id="g327" />
  <g
     transform="matrix(0,-0.27027027,0.27027027,0,75.679105,27.027027)"
     id="g331" />
  <g
     transform="matrix(-0.27027027,0,0,-0.27027027,5.4088351,29.72973)"
     id="g335" />
  <g
     transform="matrix(0.27027027,0,0,0.27027027,5.4088351,27.027027)"
     id="g339" />
  <g
     transform="matrix(0,-0.27027027,0.27027027,0,8.1115381,29.72973)"
     id="g343" />
  <g
     transform="matrix(0,0.27027027,-0.27027027,0,16.219646,27.027027)"
     id="g347" />
  <g
     transform="matrix(0,-0.27027027,0.27027027,0,16.219646,29.72973)"
     id="g351" />
  <g
     transform="matrix(0.27027027,0,0,0.27027027,27.030457,27.027027)"
     id="g355" />
  <g
     transform="matrix(0,0.27027027,-0.27027027,0,37.841268,27.027027)"
     id="g359" />
  <g
     transform="matrix(0,-0.27027027,0.27027027,0,37.841268,29.72973)"
     id="g363" />
  <g
     transform="matrix(0.27027027,0,0,0.27027027,43.246673,27.027027)"
     id="g367" />
  <g
     transform="matrix(0.27027027,0,0,0.27027027,51.354781,27.027027)"
     id="g371" />
  <g
     transform="matrix(0,0.27027027,-0.27027027,0,64.868295,27.027027)"
     id="g375" />
  <g
     transform="matrix(-0.27027027,0,0,-0.27027027,67.570997,29.72973)"
     id="g379" />
  <g
     transform="matrix(0.27027027,0,0,0.27027027,67.570997,27.027027)"
     id="g383" />
  <g
     transform="matrix(0.27027027,0,0,0.27027027,70.2737,27.027027)"
     id="g387" />
  <g
     transform="matrix(0.27027027,0,0,0.27027027,75.679105,27.027027)"
     id="g391" />
  <g
     transform="matrix(0,0.27027027,-0.27027027,0,5.4088351,29.72973)"
     id="g395" />
  <g
     transform="matrix(0.27027027,0,0,0.27027027,5.4088351,29.72973)"
     id="g399" />
  <g
     transform="matrix(0.27027027,0,0,0.27027027,8.1115381,29.72973)"
     id="g403" />
  <g
     transform="matrix(0,-0.27027027,0.27027027,0,10.814241,32.432432)"
     id="g407" />
  <g
     transform="matrix(0,0.27027027,-0.27027027,0,29.73316,29.72973)"
     id="g411" />
  <g
     transform="matrix(0,0.27027027,-0.27027027,0,32.435862,29.72973)"
     id="g415" />
  <g
     transform="matrix(0,-0.27027027,0.27027027,0,32.435862,32.432432)"
     id="g419" />
  <g
     transform="matrix(0.27027027,0,0,0.27027027,37.841268,29.72973)"
     id="g423" />
  <g
     transform="matrix(0,0.27027027,-0.27027027,0,45.949376,29.72973)"
     id="g427" />
  <g
     transform="matrix(0,-0.27027027,0.27027027,0,45.949376,32.432432)"
     id="g431" />
  <g
     transform="matrix(0,0.27027027,-0.27027027,0,54.057484,29.72973)"
     id="g435" />
  <g
     transform="matrix(0,-0.27027027,0.27027027,0,54.057484,32.432432)"
     id="g439" />
  <g
     transform="matrix(0.27027027,0,0,0.27027027,64.868295,29.72973)"
     id="g443" />
  <g
     transform="matrix(0,0.27027027,-0.27027027,0,75.679105,29.72973)"
     id="g447" />
  <g
     transform="matrix(0,-0.27027027,0.27027027,0,75.679105,32.432432)"
     id="g451" />
  <g
     transform="matrix(0,0.27027027,-0.27027027,0,5.4088351,32.432432)"
     id="g455" />
  <g
     transform="matrix(0.27027027,0,0,0.27027027,5.4088351,32.432432)"
     id="g459" />
  <g
     transform="matrix(0,0.27027027,-0.27027027,0,18.922349,32.432432)"
     id="g463" />
  <g
     transform="matrix(-0.27027027,0,0,-0.27027027,21.625051,35.135135)"
     id="g467" />
  <g
     transform="matrix(0,-0.27027027,0.27027027,0,21.625051,35.135135)"
     id="g471" />
  <g
     transform="matrix(-0.27027027,0,0,-0.27027027,37.841268,35.135135)"
     id="g475" />
  <g
     transform="matrix(0.27027027,0,0,0.27027027,37.841268,32.432432)"
     id="g479" />
  <g
     transform="matrix(0,-0.27027027,0.27027027,0,40.54397,35.135135)"
     id="g483" />
  <g
     transform="matrix(0.27027027,0,0,0.27027027,45.949376,32.432432)"
     id="g487" />
  <g
     transform="matrix(0.27027027,0,0,0.27027027,54.057484,32.432432)"
     id="g491" />
  <g
     transform="matrix(0.27027027,0,0,0.27027027,67.570997,32.432432)"
     id="g495" />
  <g
     transform="matrix(0.27027027,0,0,0.27027027,75.679105,32.432432)"
     id="g499" />
  <g
     transform="matrix(0.27027027,0,0,0.27027027,2.7061331,35.135135)"
     id="g503" />
  <g
     transform="matrix(0.27027027,0,0,0.27027027,8.1115381,35.135135)"
     id="g507" />
  <g
     transform="matrix(-0.27027027,0,0,-0.27027027,16.219646,37.837838)"
     id="g511" />
  <g
     transform="matrix(0.27027027,0,0,0.27027027,18.922349,35.135135)"
     id="g515" />
  <g
     transform="matrix(-0.27027027,0,0,-0.27027027,27.030457,37.837838)"
     id="g519" />
  <g
     transform="matrix(0,-0.27027027,0.27027027,0,27.030457,37.837838)"
     id="g523" />
  <g
     transform="matrix(0.27027027,0,0,0.27027027,35.138565,35.135135)"
     id="g527" />
  <g
     transform="matrix(0.27027027,0,0,0.27027027,48.652078,35.135135)"
     id="g531" />
  <g
     transform="matrix(-0.27027027,0,0,-0.27027027,62.165592,37.837838)"
     id="g535" />
  <g
     transform="matrix(-0.27027027,0,0,-0.27027027,67.570997,37.837838)"
     id="g539" />
  <g
     transform="matrix(0,0.27027027,-0.27027027,0,72.976403,35.135135)"
     id="g543" />
  <g
     transform="matrix(0,0.27027027,-0.27027027,0,75.679105,35.135135)"
     id="g547" />
  <g
     transform="matrix(0,-0.27027027,0.27027027,0,75.679105,37.837838)"
     id="g551" />
  <g
     transform="matrix(-0.27027027,0,0,-0.27027027,8.1115381,40.54054)"
     id="g555" />
  <g
     transform="matrix(-0.27027027,0,0,-0.27027027,13.516943,40.54054)"
     id="g559" />
  <g
     transform="matrix(0.27027027,0,0,0.27027027,13.516943,37.837838)"
     id="g563" />
  <g
     transform="matrix(0,-0.27027027,0.27027027,0,16.219646,40.54054)"
     id="g567" />
  <g
     transform="matrix(0.27027027,0,0,0.27027027,24.327754,37.837838)"
     id="g571" />
  <g
     transform="matrix(-0.27027027,0,0,-0.27027027,32.435862,40.54054)"
     id="g575" />
  <g
     transform="matrix(0,-0.27027027,0.27027027,0,32.435862,40.54054)"
     id="g579" />
  <g
     transform="matrix(-0.27027027,0,0,-0.27027027,48.652078,40.54054)"
     id="g583" />
  <g
     transform="matrix(-0.27027027,0,0,-0.27027027,56.760187,40.54054)"
     id="g587" />
  <g
     transform="matrix(0,0.27027027,-0.27027027,0,59.462889,37.837838)"
     id="g591" />
  <g
     transform="matrix(0.27027027,0,0,0.27027027,59.462889,37.837838)"
     id="g595" />
  <g
     transform="matrix(-0.27027027,0,0,-0.27027027,64.868295,40.54054)"
     id="g599" />
  <g
     transform="matrix(0,-0.27027027,0.27027027,0,64.868295,40.54054)"
     id="g603" />
  <g
     transform="matrix(0.27027027,0,0,0.27027027,75.679105,37.837838)"
     id="g607" />
  <g
     transform="matrix(-0.27027027,0,0,-0.27027027,5.4088351,43.243243)"
     id="g611" />
  <g
     transform="matrix(0.27027027,0,0,0.27027027,5.4088351,40.54054)"
     id="g615" />
  <g
     transform="matrix(0,0.27027027,-0.27027027,0,10.814241,40.54054)"
     id="g619" />
  <g
     transform="matrix(0.27027027,0,0,0.27027027,10.814241,40.54054)"
     id="g623" />
  <g
     transform="matrix(0.27027027,0,0,0.27027027,13.516943,40.54054)"
     id="g627" />
  <g
     transform="matrix(-0.27027027,0,0,-0.27027027,21.625051,43.243243)"
     id="g631" />
  <g
     transform="matrix(0.27027027,0,0,0.27027027,24.327754,40.54054)"
     id="g635" />
  <g
     transform="matrix(0.27027027,0,0,0.27027027,29.73316,40.54054)"
     id="g639" />
  <g
     transform="matrix(0,0.27027027,-0.27027027,0,45.949376,40.54054)"
     id="g643" />
  <g
     transform="matrix(0.27027027,0,0,0.27027027,45.949376,40.54054)"
     id="g647" />
  <g
     transform="matrix(0,-0.27027027,0.27027027,0,48.652078,43.243243)"
     id="g651" />
  <g
     transform="matrix(0.27027027,0,0,0.27027027,54.057484,40.54054)"
     id="g655" />
  <g
     transform="matrix(0,0.27027027,-0.27027027,0,62.165592,40.54054)"
     id="g659" />
  <g
     transform="matrix(0.27027027,0,0,0.27027027,62.165592,40.54054)"
     id="g663" />
  <g
     transform="matrix(0.27027027,0,0,0.27027027,64.868295,40.54054)"
     id="g667" />
  <g
     transform="matrix(0,-0.27027027,0.27027027,0,67.570997,43.243243)"
     id="g671" />
  <g
     transform="matrix(0.27027027,0,0,0.27027027,2.7061331,43.243243)"
     id="g675" />
  <g
     transform="matrix(0,0.27027027,-0.27027027,0,18.922349,43.243243)"
     id="g679" />
  <g
     transform="matrix(0.27027027,0,0,0.27027027,18.922349,43.243243)"
     id="g683" />
  <g
     transform="matrix(-0.27027027,0,0,-0.27027027,24.327754,45.945946)"
     id="g687" />
  <g
     transform="matrix(0,-0.27027027,0.27027027,0,24.327754,45.945946)"
     id="g691" />
  <g
     transform="matrix(0.27027027,0,0,0.27027027,29.73316,43.243243)"
     id="g695" />
  <g
     transform="matrix(0,0.27027027,-0.27027027,0,51.354781,43.243243)"
     id="g699" />
  <g
     transform="matrix(0,-0.27027027,0.27027027,0,51.354781,45.945946)"
     id="g703" />
  <g
     transform="matrix(0.27027027,0,0,0.27027027,64.868295,43.243243)"
     id="g707" />
  <g
     transform="matrix(0,0.27027027,-0.27027027,0,75.679105,43.243243)"
     id="g711" />
  <g
     transform="matrix(0,-0.27027027,0.27027027,0,75.679105,45.945946)"
     id="g715" />
  <g
     transform="matrix(0,0.27027027,-0.27027027,0,8.1115381,45.945946)"
     id="g719" />
  <g
     transform="matrix(0,-0.27027027,0.27027027,0,8.1115381,48.648648)"
     id="g723" />
  <g
     transform="matrix(-0.27027027,0,0,-0.27027027,16.219646,48.648648)"
     id="g727" />
  <g
     transform="matrix(0,0.27027027,-0.27027027,0,24.327754,45.945946)"
     id="g731" />
  <g
     transform="matrix(0.27027027,0,0,0.27027027,24.327754,45.945946)"
     id="g735" />
  <g
     transform="matrix(0,-0.27027027,0.27027027,0,27.030457,48.648648)"
     id="g739" />
  <g
     transform="matrix(0.27027027,0,0,0.27027027,32.435862,45.945946)"
     id="g743" />
  <g
     transform="matrix(0.27027027,0,0,0.27027027,37.841268,45.945946)"
     id="g747" />
  <g
     transform="matrix(-0.27027027,0,0,-0.27027027,45.949376,48.648648)"
     id="g751" />
  <g
     transform="matrix(0,0.27027027,-0.27027027,0,54.057484,45.945946)"
     id="g755" />
  <g
     transform="matrix(-0.27027027,0,0,-0.27027027,56.760187,48.648648)"
     id="g759" />
  <g
     transform="matrix(0,-0.27027027,0.27027027,0,56.760187,48.648648)"
     id="g763" />
  <g
     transform="matrix(0.27027027,0,0,0.27027027,64.868295,45.945946)"
     id="g767" />
  <g
     transform="matrix(0.27027027,0,0,0.27027027,75.679105,45.945946)"
     id="g771" />
  <g
     transform="matrix(-0.27027027,0,0,-0.27027027,5.4088351,51.351351)"
     id="g775" />
  <g
     transform="matrix(0,0.27027027,-0.27027027,0,10.814241,48.648648)"
     id="g779" />
  <g
     transform="matrix(0,0.27027027,-0.27027027,0,13.516943,48.648648)"
     id="g783" />
  <g
     transform="matrix(0.27027027,0,0,0.27027027,13.516943,48.648648)"
     id="g787" />
  <g
     transform="matrix(0,-0.27027027,0.27027027,0,16.219646,51.351351)"
     id="g791" />
  <g
     transform="matrix(0.27027027,0,0,0.27027027,21.625051,48.648648)"
     id="g795" />
  <g
     transform="matrix(0.27027027,0,0,0.27027027,27.030457,48.648648)"
     id="g799" />
  <g
     transform="matrix(0,0.27027027,-0.27027027,0,45.949376,48.648648)"
     id="g803" />
  <g
     transform="matrix(0,-0.27027027,0.27027027,0,45.949376,51.351351)"
     id="g807" />
  <g
     transform="matrix(0.27027027,0,0,0.27027027,54.057484,48.648648)"
     id="g811" />
  <g
     transform="matrix(0.27027027,0,0,0.27027027,70.2737,48.648648)"
     id="g815" />
  <g
     transform="matrix(0.27027027,0,0,0.27027027,75.679105,48.648648)"
     id="g819" />
  <g
     transform="matrix(0.27027027,0,0,0.27027027,2.7061331,51.351351)"
     id="g823" />
  <g
     transform="matrix(0.27027027,0,0,0.27027027,8.1115381,51.351351)"
     id="g827" />
  <g
     transform="matrix(0.27027027,0,0,0.27027027,18.922349,51.351351)"
     id="g831" />
  <g
     transform="matrix(0,0.27027027,-0.27027027,0,27.030457,51.351351)"
     id="g835" />
  <g
     transform="matrix(0.27027027,0,0,0.27027027,27.030457,51.351351)"
     id="g839" />
  <g
     transform="matrix(-0.27027027,0,0,-0.27027027,32.435862,54.054054)"
     id="g843" />
  <g
     transform="matrix(-0.27027027,0,0,-0.27027027,35.138565,54.054054)"
     id="g847" />
  <g
     transform="matrix(0,-0.27027027,0.27027027,0,35.138565,54.054054)"
     id="g851" />
  <g
     transform="matrix(0,0.27027027,-0.27027027,0,48.652078,51.351351)"
     id="g855" />
  <g
     transform="matrix(0,-0.27027027,0.27027027,0,48.652078,54.054054)"
     id="g859" />
  <g
     transform="matrix(-0.27027027,0,0,-0.27027027,64.868295,54.054054)"
     id="g863" />
  <g
     transform="matrix(-0.27027027,0,0,-0.27027027,67.570997,54.054054)"
     id="g867" />
  <g
     transform="matrix(0,-0.27027027,0.27027027,0,67.570997,54.054054)"
     id="g871" />
  <g
     transform="matrix(0.27027027,0,0,0.27027027,75.679105,51.351351)"
     id="g875" />
  <g
     transform="matrix(0,0.27027027,-0.27027027,0,5.4088351,54.054054)"
     id="g879" />
  <g
     transform="matrix(0,0.27027027,-0.27027027,0,8.1115381,54.054054)"
     id="g883" />
  <g
     transform="matrix(0.27027027,0,0,0.27027027,8.1115381,54.054054)"
     id="g887" />
  <g
     transform="matrix(0,0.27027027,-0.27027027,0,13.516943,54.054054)"
     id="g891" />
  <g
     transform="matrix(0,0.27027027,-0.27027027,0,16.219646,54.054054)"
     id="g895" />
  <g
     transform="matrix(0,-0.27027027,0.27027027,0,16.219646,56.756757)"
     id="g899" />
  <g
     transform="matrix(0,0.27027027,-0.27027027,0,29.73316,54.054054)"
     id="g903" />
  <g
     transform="matrix(0.27027027,0,0,0.27027027,29.73316,54.054054)"
     id="g907" />
  <g
     transform="matrix(0.27027027,0,0,0.27027027,32.435862,54.054054)"
     id="g911" />
  <g
     transform="matrix(-0.27027027,0,0,-0.27027027,43.246673,56.756757)"
     id="g915" />
  <g
     transform="matrix(-0.27027027,0,0,-0.27027027,45.949376,56.756757)"
     id="g919" />
  <g
     transform="matrix(0,-0.27027027,0.27027027,0,45.949376,56.756757)"
     id="g923" />
  <g
     transform="matrix(0,0.27027027,-0.27027027,0,54.057484,54.054054)"
     id="g927" />
  <g
     transform="matrix(-0.27027027,0,0,-0.27027027,56.760187,56.756757)"
     id="g931" />
  <g
     transform="matrix(0,0.27027027,-0.27027027,0,59.462889,54.054054)"
     id="g935" />
  <g
     transform="matrix(0,0.27027027,-0.27027027,0,62.165592,54.054054)"
     id="g939" />
  <g
     transform="matrix(0.27027027,0,0,0.27027027,62.165592,54.054054)"
     id="g943" />
  <g
     transform="matrix(0,-0.27027027,0.27027027,0,64.868295,56.756757)"
     id="g947" />
  <g
     transform="matrix(0.27027027,0,0,0.27027027,72.976403,54.054054)"
     id="g951" />
  <g
     transform="matrix(0,0.27027027,-0.27027027,0,24.327754,56.756757)"
     id="g955" />
  <g
     transform="matrix(0,-0.27027027,0.27027027,0,24.327754,59.459459)"
     id="g959" />
  <g
     transform="matrix(0.27027027,0,0,0.27027027,29.73316,56.756757)"
     id="g963" />
  <g
     transform="matrix(0,0.27027027,-0.27027027,0,40.54397,56.756757)"
     id="g967" />
  <g
     transform="matrix(0.27027027,0,0,0.27027027,40.54397,56.756757)"
     id="g971" />
  <g
     transform="matrix(0.27027027,0,0,0.27027027,43.246673,56.756757)"
     id="g975" />
  <g
     transform="matrix(0.27027027,0,0,0.27027027,45.949376,56.756757)"
     id="g979" />
  <g
     transform="matrix(0,-0.27027027,0.27027027,0,48.652078,59.459459)"
     id="g983" />
  <g
     transform="matrix(0.27027027,0,0,0.27027027,54.057484,56.756757)"
     id="g987" />
  <g
     transform="matrix(0.27027027,0,0,0.27027027,64.868295,56.756757)"
     id="g991" />
  <g
     transform="matrix(0.27027027,0,0,0.27027027,70.2737,56.756757)"
     id="g995" />
  <g
     transform="matrix(-0.27027027,0,0,-0.27027027,78.381808,59.459459)"
     id="g999" />
  <g
     transform="matrix(0.27027027,0,0,0.27027027,0.00343013,59.459459)"
     id="g1003">
    <g
       id="g1005"
       style="fill:#00d644;fill-opacity:1;stroke:#00d644;stroke-width:2.46246886;stroke-miterlimit:4;stroke-opacity:1;stroke-dasharray:none"
       transform="matrix(-0.20129077,0,0,-0.20192619,48.394961,66.945737)" />
    <g
       id="g1007"
       style="fill:#00d644;fill-opacity:1;stroke:#00d644;stroke-width:2.46246886;stroke-miterlimit:4;stroke-opacity:1;stroke-dasharray:none"
       transform="matrix(0,-0.20129076,0.20192619,0,3.1792627,48.519963)" />
    <g
       id="g1009"
       style="fill:#00d644;fill-opacity:1;stroke:#00d644;stroke-width:2.46246886;stroke-miterlimit:4;stroke-opacity:1;stroke-dasharray:none"
       transform="matrix(0,0.20129076,-0.20192619,0,66.820735,21.73004)" />
    <g
       id="g1011"
       style="fill:#00d644;fill-opacity:1;stroke:#00d644;stroke-width:2.46246886;stroke-miterlimit:4;stroke-opacity:1;stroke-dasharray:none"
       transform="matrix(0.20129077,0,0,0.20192619,21.605037,3.304265)" />
  </g>
  <g
     transform="matrix(-0.27027027,0,0,-0.27027027,29.73316,62.162162)"
     id="g1015" />
  <g
     transform="matrix(0.27027027,0,0,0.27027027,29.73316,59.459459)"
     id="g1019" />
  <g
     transform="matrix(-0.27027027,0,0,-0.27027027,37.841268,62.162162)"
     id="g1023" />
  <g
     transform="matrix(0.27027027,0,0,0.27027027,40.54397,59.459459)"
     id="g1027" />
  <g
     transform="matrix(0,0.27027027,-0.27027027,0,51.354781,59.459459)"
     id="g1031" />
  <g
     transform="matrix(-0.27027027,0,0,-0.27027027,54.057484,62.162162)"
     id="g1035" />
  <g
     transform="matrix(0,-0.27027027,0.27027027,0,54.057484,62.162162)"
     id="g1039" />
  <g
     transform="matrix(0.27027027,0,0,0.27027027,59.462889,59.459459)"
     id="g1043" />
  <g
     transform="matrix(0.27027027,0,0,0.27027027,64.868295,59.459459)"
     id="g1047" />
  <g
     transform="matrix(0.27027027,0,0,0.27027027,75.679105,59.459459)"
     id="g1051" />
  <g
     transform="matrix(-0.27027027,0,0,-0.27027027,27.030457,64.864865)"
     id="g1055" />
  <g
     transform="matrix(0.27027027,0,0,0.27027027,27.030457,62.162162)"
     id="g1059" />
  <g
     transform="matrix(0,0.27027027,-0.27027027,0,37.841268,62.162162)"
     id="g1063" />
  <g
     transform="matrix(-0.27027027,0,0,-0.27027027,40.54397,64.864865)"
     id="g1067" />
  <g
     transform="matrix(0.27027027,0,0,0.27027027,40.54397,62.162162)"
     id="g1071" />
  <g
     transform="matrix(0,-0.27027027,0.27027027,0,43.246673,64.864865)"
     id="g1075" />
  <g
     transform="matrix(0,0.27027027,-0.27027027,0,54.057484,62.162162)"
     id="g1079" />
  <g
     transform="matrix(0,-0.27027027,0.27027027,0,54.057484,64.864865)"
     id="g1083" />
  <g
     transform="matrix(0,0.27027027,-0.27027027,0,67.570997,62.162162)"
     id="g1087" />
  <g
     transform="matrix(0,-0.27027027,0.27027027,0,67.570997,64.864865)"
     id="g1091" />
  <g
     transform="matrix(-0.27027027,0,0,-0.27027027,75.679105,64.864865)"
     id="g1095" />
  <g
     transform="matrix(0.27027027,0,0,0.27027027,75.679105,62.162162)"
     id="g1099" />
  <g
     transform="matrix(0.27027027,0,0,0.27027027,5.4088351,64.864865)"
     id="g1103">
    <path
       id="rect1105"
       style="fill:#00d644;fill-opacity:1;stroke:none"
       d="m 8.9611483,0.02239227 12.0777037,0 C 26.003328,0.02239227 30,4.0190644 30,8.9835405 l 0,12.0777035 c 0,4.964476 -3.996672,8.961148 -8.961148,8.961148 l -12.0777037,0 C 3.9966721,30.022392 0,26.02572 0,21.061244 L 0,8.9835405 C 0,4.0190644 3.9966721,0.02239227 8.9611483,0.02239227 z M 49.966245,40.130594 l -9.980238,0 0,9.983614 c 0,0 10.430449,0.737584 9.980238,-9.983614 z m -9.980236,-0.01959 0,9.994403 -9.994403,0 0,-9.994403 z m -9.994405,0 0,9.994403 -9.994404,0 0,-9.994403 z m -9.994402,0 0,9.994403 -9.994403,0 0,-9.994403 z m -9.994401,0 0,9.994403 -9.99440478,0 0,-9.994403 z m -9.99440277,0 0,9.994403 -9.99440343,0 0,-9.994403 z m -10.01399223,9.980234 0,-9.980236 -9.983614,0 c 0,0 -0.737581,10.430449 9.983614,9.980236 z m 49.991603,-19.974638 9.994405,0 0,9.994406 -9.994405,0 z m -59.966422,0 9.9944018,0 0,9.994406 -9.9944018,0 z m 59.966422,-9.994405 9.994405,0 0,9.994407 -9.994405,0 z m -59.966422,0 9.9944018,0 0,9.994407 -9.9944018,0 z m 59.966422,-9.994399 9.994405,0 0,9.994401 -9.994405,0 z m -59.966422,0 9.9944018,0 0,9.994401 -9.9944018,0 z m 59.966422,-9.9944048 9.994405,0 0,9.9944068 -9.994405,0 z m -59.966422,0 9.9944018,0 0,9.9944068 -9.9944018,0 z m 59.966422,-9.9944054 9.994405,0 0,9.99440439 -9.994405,0 z m -59.966422,0 9.9944018,0 0,9.99440439 -9.9944018,0 z m 59.986012,-9.9802348 0,9.9802384 9.983613,0 c 0,0 0.737582,-10.4304504 -9.983613,-9.9802384 z m -0.01959,-0.01418 0,9.9944037 -9.994403,0 0,-9.9944037 z m -9.994405,0 0,9.9944037 -9.994404,0 0,-9.9944037 z m -9.994402,0 0,9.9944037 -9.994403,0 0,-9.9944037 z m -9.994401,0 0,9.9944037 -9.99440472,0 0,-9.9944037 z m -9.9944027,0 0,9.9944037 -9.9944034,0 0,-9.9944037 z m -19.9746383,9.9748209 9.9802377,0 0,-9.9836139 c 0,0 -10.4304487,-0.737583 -9.9802377,9.9836139 z" />
  </g>
  <g
     transform="matrix(0,0.27027027,-0.27027027,0,24.327754,64.864865)"
     id="g1107" />
  <g
     transform="matrix(0,-0.27027027,0.27027027,0,24.327754,67.567567)"
     id="g1111" />
  <g
     transform="matrix(0,0.27027027,-0.27027027,0,40.54397,64.864865)"
     id="g1115" />
  <g
     transform="matrix(0.27027027,0,0,0.27027027,40.54397,64.864865)"
     id="g1119" />
  <g
     transform="matrix(0.27027027,0,0,0.27027027,43.246673,64.864865)"
     id="g1123" />
  <g
     transform="matrix(0,0.27027027,-0.27027027,0,54.057484,64.864865)"
     id="g1127" />
  <g
     transform="matrix(0.27027027,0,0,0.27027027,54.057484,64.864865)"
     id="g1131" />
  <g
     transform="matrix(-0.27027027,0,0,-0.27027027,59.462889,67.567567)"
     id="g1135" />
  <g
     transform="matrix(0,0.27027027,-0.27027027,0,62.165592,64.864865)"
     id="g1139" />
  <g
     transform="matrix(-0.27027027,0,0,-0.27027027,64.868295,67.567567)"
     id="g1143" />
  <g
     transform="matrix(0.27027027,0,0,0.27027027,64.868295,64.864865)"
     id="g1147" />
  <g
     transform="matrix(0.27027027,0,0,0.27027027,72.976403,64.864865)"
     id="g1151" />
  <g
     transform="matrix(0,0.27027027,-0.27027027,0,27.030457,67.567567)"
     id="g1155" />
  <g
     transform="matrix(0,-0.27027027,0.27027027,0,27.030457,70.27027)"
     id="g1159" />
  <g
     transform="matrix(-0.27027027,0,0,-0.27027027,35.138565,70.27027)"
     id="g1163" />
  <g
     transform="matrix(-0.27027027,0,0,-0.27027027,51.354781,70.27027)"
     id="g1167" />
  <g
     transform="matrix(0.27027027,0,0,0.27027027,56.760187,67.567567)"
     id="g1171" />
  <g
     transform="matrix(0.27027027,0,0,0.27027027,62.165592,67.567567)"
     id="g1175" />
  <g
     transform="matrix(0,0.27027027,-0.27027027,0,72.976403,67.567567)"
     id="g1179" />
  <g
     transform="matrix(0,-0.27027027,0.27027027,0,72.976403,70.27027)"
     id="g1183" />
  <g
     transform="matrix(0.27027027,0,0,0.27027027,27.030457,70.27027)"
     id="g1187" />
  <g
     transform="matrix(0,0.27027027,-0.27027027,0,35.138565,70.27027)"
     id="g1191" />
  <g
     transform="matrix(-0.27027027,0,0,-0.27027027,37.841268,72.972973)"
     id="g1195" />
  <g
     transform="matrix(0,0.27027027,-0.27027027,0,40.54397,70.27027)"
     id="g1199" />
  <g
     transform="matrix(0,-0.27027027,0.27027027,0,40.54397,72.972973)"
     id="g1203" />
  <g
     transform="matrix(-0.27027027,0,0,-0.27027027,48.652078,72.972973)"
     id="g1207" />
  <g
     transform="matrix(0.27027027,0,0,0.27027027,48.652078,70.27027)"
     id="g1211" />
  <g
     transform="matrix(0.27027027,0,0,0.27027027,56.760187,70.27027)"
     id="g1215" />
  <g
     transform="matrix(0.27027027,0,0,0.27027027,62.165592,70.27027)"
     id="g1219" />
  <g
     transform="matrix(-0.27027027,0,0,-0.27027027,70.2737,72.972973)"
     id="g1223" />
  <g
     transform="matrix(0,0.27027027,-0.27027027,0,75.679105,70.27027)"
     id="g1227" />
  <g
     transform="matrix(0,-0.27027027,0.27027027,0,75.679105,72.972973)"
     id="g1231" />
  <g
     transform="matrix(0.27027027,0,0,0.27027027,21.625051,72.972973)"
     id="g1235" />
  <g
     transform="matrix(0,0.27027027,-0.27027027,0,29.73316,72.972973)"
     id="g1239" />
  <g
     transform="matrix(0,-0.27027027,0.27027027,0,29.73316,75.675675)"
     id="g1243" />
  <g
     transform="matrix(0.27027027,0,0,0.27027027,35.138565,72.972973)"
     id="g1247" />
  <g
     transform="matrix(0,0.27027027,-0.27027027,0,43.246673,72.972973)"
     id="g1251" />
  <g
     transform="matrix(0,0.27027027,-0.27027027,0,45.949376,72.972973)"
     id="g1255" />
  <g
     transform="matrix(0,-0.27027027,0.27027027,0,45.949376,75.675675)"
     id="g1259" />
  <g
     transform="matrix(0.27027027,0,0,0.27027027,62.165592,72.972973)"
     id="g1263" />
  <g
     transform="matrix(0.27027027,0,0,0.27027027,67.570997,72.972973)"
     id="g1267" />
  <g
     transform="matrix(0,0.27027027,-0.27027027,0,75.679105,72.972973)"
     id="g1271" />
  <g
     transform="matrix(0.27027027,0,0,0.27027027,75.679105,72.972973)"
     id="g1275" />
  <g
     transform="matrix(0,0.27027027,-0.27027027,0,27.030457,75.675675)"
     id="g1279" />
  <g
     transform="matrix(0.27027027,0,0,0.27027027,27.030457,75.675675)"
     id="g1283" />
  <g
     transform="matrix(0,0.27027027,-0.27027027,0,37.841268,75.675675)"
     id="g1287" />
  <g
     transform="matrix(0,-0.27027027,0.27027027,0,37.841268,78.378378)"
     id="g1291" />
  <g
     transform="matrix(0.27027027,0,0,0.27027027,45.949376,75.675675)"
     id="g1295" />
  <g
     transform="matrix(0.27027027,0,0,0.27027027,59.462889,75.675675)"
     id="g1299" />
  <g
     transform="matrix(0.27027027,0,0,0.27027027,64.868295,75.675675)"
     id="g1303" />
  <g
     transform="matrix(0.27027027,0,0,0.27027027,72.976403,75.675675)"
     id="g1307">
    <path
       id="path1309"
       style="fill:#1c96e8;fill-opacity:1;stroke:none"
       d="M -5e-8,-1 10,-1 10,3.26039 10,6.73961 C 10,8.545866 8.545866,10 6.7396099,10 L 3.26039,10 C 1.4541339,10 -5.0000001e-8,8.545866 -5.0000001e-8,6.73961 l 0,-3.47922 C -5.0000001e-8,1.454134 -5e-8,-1 -5e-8,-1 z M -26.73961,0 -23.26039,0 C -21.454134,0 -20,1.454134 -20,3.26039 l 0,3.47922 C -20,8.545866 -21.454134,10 -23.26039,10 l -3.47922,0 C -28.545866,10 -30,8.545866 -30,6.73961 l 0,-3.47922 C -30,1.454134 -28.545866,0 -26.73961,0 z m -20.000002,0 3.47922,0 c 1.806256,0 3.26039,1.454134 3.26039,3.26039 l 0,3.47922 c 0,1.806256 -1.454134,3.26039 -3.26039,3.26039 l -3.47922,0 c -1.806256,0 -3.26039,-1.454134 -3.26039,-3.26039 l 0,-3.47922 C -50.000002,1.454134 -48.545868,0 -46.739612,0 z M -100,-1 l 10,0 0,4.26039 0,3.47922 C -90,8.545866 -91.454134,10 -93.26039,10 l -3.47922,0 C -98.545866,10 -100,8.545866 -100,6.73961 l 0,-3.47922 C -100,1.454134 -100,-1 -100,-1 z m -31,11.000001 0,-9.99999989 4.26039,0 3.47922,0 c 1.80626,0 3.26039,1.45413399 3.26039,3.26039009 l 0,3.4792199 c 0,1.8062561 -1.45413,3.2603899 -3.26039,3.2603899 l -3.47922,0 c -1.80626,0 -4.26039,0 -4.26039,0 z M -129,1.1920929e-7 -129,10 -130,10 -130,1.1920929e-7 z M -130,-1 l 0,11 -3.26039,0 -3.47922,0 C -138.54587,10 -140,8.545866 -140,6.7396099 L -140,3.26039 -140,-1 l 6.73961,0 z m -40,0 10,0 0,1 -10,0 z m -1,1 11,0 0,3.26039 0,3.47922 C -160,8.545866 -161.45413,10 -163.26039,10 l -3.47922,0 -4.26039,0 0,-6.73961 z m 2,-5e-8 L -169,10 l -4.26039,0 -3.47922,0 C -178.54587,10 -180,8.545866 -180,6.7396099 L -180,3.26039 C -180,1.4541339 -178.54587,-5.0000001e-8 -176.73961,-5.0000001e-8 l 3.47922,0 c 1.80626,0 4.26039,1e-15 4.26039,1e-15 z M 9.9999975,-10.999997 l 9.9999995,0 0,0.9999996 -9.9999995,0 z m -1.0000001,0.9999996 10.9999996,0 0,3.26039 0,3.47922 c 0,1.806256 -1.454134,3.26038999 -3.26039,3.26038999 l -3.47922,0 -4.2603896,0 0,-6.73960999 z m 1,11 -9.99999999,0 0,-1.00000001 9.99999999,0 z m 0.9576276,-11 0,9.99999999 -1.0000005,0 0,-9.99999999 z M -2.59e-6,-10.999997 l 9.99999999,0 0,0.9999996 -9.99999999,0 z m 9.99999999,0.9999996 0,9.99999999 -9.99999999,0 0,-9.99999999 z m -29.9999994,-0.9999996 10,0 0,4.2603896 0,3.47922 c 0,1.806256 -1.454134,3.26038999 -3.26039,3.26038999 l -3.47922,0 c -1.806256,0 -3.26039,-1.45413399 -3.26039,-3.26038999 l 0,-3.47922 c 0,-1.806256 0,-4.2603896 0,-4.2603896 z m -19.999999,0 10,0 0,4.2603896 0,3.47922 c 0,1.806256 -1.454134,3.26038999 -3.26039,3.26038999 l -3.47922,0 c -1.806256,0 -3.26039,-1.45413399 -3.26039,-3.26038999 l 0,-3.47922 c 0,-1.806256 0,-4.2603896 0,-4.2603896 z M -100,-11 l 10,0 0,1 -10,0 z M -100.95763,3.7252903e-8 -100.95763,-10 l 1.000003,0 0,10.000000037252901 z M -90,1 l -10,0 0,-1 10,0 z m -10,-1 0,-10 10,0 0,10 z m -9.9661,-9.9999974 0,9.99999999 -1,0 0,-9.99999999 z m 10.940676,3e-7 0,9.99999969 -0.999996,0 0,-9.99999969 z m -0.974576,-3e-7 0,9.99999999 -10,0 0,-9.99999999 z m -9,10e-8 0,9.99999989 -1,0 0,-9.99999989 z m -1,-0.9999997 0,10.99999959 -3.26039,0 -3.47922,0 C -118.54587,2.59e-6 -120,-1.4541314 -120,-3.2603875 l 0,-3.4792199 0,-4.2603896 6.73961,0 z m -30,10.96610119 10,0 0,1.0000004 -10,0 z m 0,-10.94067819 10,0 0,1.0000004 -10,0 z m 0,0.9745766 10,0 0,9.99999999 -10,0 z M -161,5e-8 -161,-10 l 4.26039,0 3.47922,0 c 1.80626,0 3.26039,1.454134 3.26039,3.2603901 l 0,3.4792199 C -150,-1.4541339 -151.45413,5.0000001e-8 -153.26039,5.0000001e-8 l -3.47922,0 c -1.80626,0 -4.26039,-1e-15 -4.26039,-1e-15 z m 1,1.00000255 -10,0 0,-1.00000001 10,0 z m 0.95763,-11 0,9.99999999 -1,0 0,-9.99999999 z M -170,-10.999997 l 10,0 0,0.9999996 -10,0 z m 10,0.9999996 0,9.99999999 -10,0 0,-9.99999999 z m -26.73961,0 3.47922,0 c 1.80625,0 3.26039,1.454134 3.26039,3.26039 l 0,3.47922 c 0,1.806256 -1.45414,3.26038999 -3.26039,3.26038999 l -3.47922,0 C -188.54587,2.59e-6 -190,-1.4541314 -190,-3.2603874 l 0,-3.47922 c 0,-1.806256 1.45413,-3.26039 3.26039,-3.26039 z m 195.7396074,-10e-8 0,-9.9999995 1,0 0,9.9999995 z m 1,1.0000001 0,-10.9999996 3.2603896,0 3.47922,0 c 1.806256,0 3.26039,1.454134 3.26039,3.26039 l 0,3.47922 0,4.2603896 -6.73961,0 z m 0,-1.1e-6 -9.99999999,0 0,-1 9.99999999,0 z m 0.9576276,-11.0000005 0,10.0000005 -1.0000005,0 0,-10.0000005 z m -10.95762759,-1 9.99999999,0 0,1 -9.99999999,0 z m 9.99999999,1 0,10.0000005 -9.99999999,0 0,-10.0000005 z m -19.9999984,11.0000016 -10,0 0,-4.2603896 0,-3.47922 c 0,-1.806256 1.454134,-3.26039 3.26039,-3.26039 l 3.47922,0 c 1.806256,0 3.26039,1.454134 3.26039,3.26039 l 0,3.47922 c 0,1.806256 0,4.2603896 0,4.2603896 z m -30,-1.0338996 10,0 0,1.0000005 -10,0 z m 10e-7,-10.940678 9.999999,0 0,1 -9.999999,0 z m -10e-7,0.974576 10,0 0,10.0000005 -10,0 z m -19.999998,-1 10,0 0,4.26039 0,3.47922 c 0,1.806256 -1.454134,3.2603905 -3.26039,3.2603905 l -3.47922,0 c -1.806256,0 -3.26039,-1.4541345 -3.26039,-3.2603905 l 0,-3.47922 c 0,-1.806256 0,-4.26039 0,-4.26039 z m -30.000003,0 9.999999,0 0,1 -9.999999,0 z m -1.000001,1 11,0 0,3.26039 0,3.47922 c 0,1.806256 -1.454134,3.2603905 -3.26039,3.2603905 l -3.47922,0 -4.26039,0 0,-6.7396105 z m 1,11.0000016 -9.999997,0 0,-1 9.999997,0 z m 1,-1 -10.999997,0 0,-3.2603896 0,-3.47922 c 0,-1.806256 1.454131,-3.26039 3.260388,-3.26039 l 3.479219,0 4.26039,0 0,6.73961 z m -31.999997,-10e-8 0,-9.9999995 1,0 0,9.9999995 z m 1,1.0000001 0,-10.9999996 3.26039,0 3.47922,0 c 1.80625,0 3.26039,1.454134 3.26039,3.26039 l 0,3.47922 0,4.2603896 -6.73961,0 z m -9.9661,-11.0000016 0,10.0000005 -1,0 0,-10.0000005 z m 10.94067,10e-7 0,9.9999995 -1,0 0,-9.9999995 z m -0.97457,-10e-7 0,10.0000005 -10,0 0,-10.0000005 z m -21,10.0000016 0,-9.9999996 1,0 0,9.9999996 z m 11,0.9576271 -10,0 0,-0.9999997 10,0 z m 1,-10.9576267 0,9.9999996 -1,0 0,-9.9999996 z m -1,9.9999996 -10,0 0,-9.9999996 10,0 z m -9,-10.0000006 0,9.9999995 -1,0 0,-9.9999995 z m -1,-1.000001 0,11.0000005 -3.26039,0 -3.47922,0 c -1.80626,0 -3.26039,-1.4541345 -3.26039,-3.2603905 l 0,-3.47922 0,-4.26039 6.73961,0 z m -30,10.966102 10,0 0,1.0000005 -10,0 z m 0,-10.940678 10,0 0,1 -10,0 z m 0,0.974576 10,0 0,10.0000005 -10,0 z m 170,-11 10,0 0,1 -10,0 z m -0.95762712,11.000001 0,-10.000001 1,0 0,10.000001 z M 10,-18.999999 l -10,0 0,-1 10,0 z m -10,-1 0,-10 10,0 0,10 z M 1,-30 l 0,10 -4.26039,0 -3.47922,0 C -8.545866,-20 -10,-21.454134 -10,-23.26039 l 0,-3.47922 C -10,-28.545866 -8.545866,-30 -6.73961,-30 l 3.47922,0 C -1.454134,-30 1,-30 1,-30 z m -41.000001,9.966102 10,0 0,1 -10,0 z m 10e-7,-10.940678 9.999999,0 0,1 -9.999999,0 z m -10e-7,0.974576 10,0 0,10 -10,0 z m -19.999998,9.966102 10,0 0,1 -10,0 z m 0,-10.940678 10,0 0,1 -10,0 z m 0,0.974576 10,0 0,10 -10,0 z m -20.000002,11.000001 -10,0 0,-4.26039 0,-3.47922 c 0,-1.806256 1.454134,-3.26039 3.26039,-3.26039 l 3.47922,0 c 1.806256,0 3.26039,1.454134 3.26039,3.26039 l 0,3.47922 c 0,1.806256 0,4.26039 0,4.26039 z m -59.999999,0 -10,0 0,-4.26039 0,-3.47922 c 0,-1.806256 1.45413,-3.26039 3.26039,-3.26039 l 3.47922,0 c 1.80626,0 3.26039,1.454134 3.26039,3.26039 l 0,3.47922 c 0,1.806256 0,4.26039 0,4.26039 z m -31,-1 0,-10 1,0 0,10 z m 1,1 0,-11 3.26039,0 3.47922,0 c 1.80626,0 3.26039,1.454134 3.26039,3.260391 l 0,3.479219 0,4.26039 -6.73961,0 z M -169,-30 l 0,10 -1,0 0,-10 z m -1,-1 0,11 -3.26039,0 -3.47922,0 C -178.54587,-20 -180,-21.454134 -180,-23.26039 l 0,-3.47922 0,-4.26039 6.73961,0 z m 170,0.966105 10,0 0,1 -10,0 z M 3.394434e-7,-40.974573 10,-40.974573 l 0,1 -9.9999996605566,0 z M 0,-39.999997 l 10,0 0,10 -10,0 z m -30,-1 10,0 0,1 -10,0 z m -1,1 11,0 0,3.26039 0,3.47922 c 0,1.806256 -1.454134,3.26039 -3.26039,3.26039 l -3.47922,0 -4.26039,0 0,-6.73961 z M -41,-30 l 0,-10 1,0 0,10 z m 11,0.957627 -10,0 0,-1 10,0 z M -29,-40 l 0,10 -1,0 0,-10 z m -1,10 -10,0 0,-10 10,0 z m -19.966102,-9.999997 0,10 -1.000001,0 0,-10 z m 10.940677,0 0,10 -1,0 0,-10 z m -0.974576,0 0,10 -10,0 0,-10 z M -61.000002,-30 l 0,-10 1,0 0,10 z m 11,0.957627 -10,0 0,-1 10,0 z m 1,-10.957627 0,10 -1,0 0,-10 z m -1,10 -10,0 0,-10 10,0 z M -59,-39.999997 l 0,10 -1,0 0,-10 z m -11,-0.957627 10,0 0,1 -10,0 z m -1,10.957627 0,-10 1,0 0,10 z m 1,-10 10,0 0,10 -10,0 z m 1,0 0,10 -1,0 0,-10 z m -1,-1 0,11 -3.26039,0 -3.47922,0 c -1.806256,0 -3.26039,-1.454134 -3.26039,-3.26039 l 0,-3.47922 0,-4.26039 6.73961,0 z m -40,0 10,0 0,1 -10,0 z m -1,1 11,0 0,3.26039 0,3.47922 c 0,1.806256 -1.45414,3.26039 -3.26039,3.26039 l -3.47922,0 -4.26039,0 0,-6.73961 z m 2,0 0,10 -1,0 0,-10 z m -11,-0.957627 10,0 0,1 -10,0 z m -1,10.957627 0,-10 1,0 0,10 z m 1,-10 10,0 0,10 -10,0 z m 1,0 0,10 -1,0 0,-10 z m -1,-1 0,11 -3.26039,0 -3.47922,0 c -1.80626,0 -3.26039,-1.454134 -3.26039,-3.26039 l 0,-3.47922 0,-4.26039 6.73961,0 z m -60,-3e-6 10,0 0,1 -10,0 z m -0.95763,11 0,-10 1,0 0,10 z m 10.95763,1 -10,0 0,-1 10,0 z m -10,-1 0,-10 10,0 0,10 z m 1,-9.999997 0,10 -4.26039,0 -3.47922,0 c -1.80626,0 -3.26039,-1.454134 -3.26039,-3.26039 l 0,-3.47922 c 0,-1.806256 1.45413,-3.26039 3.26039,-3.26039 l 3.47922,0 c 1.80625,0 4.26039,0 4.26039,0 z m 188.9999975,-11.000001 9.9999995,0 0,1 -9.9999995,0 z m -1.0000001,1 10.9999996,0 0,3.26039 0,3.47922 c 0,1.806256 -1.454134,3.26039 -3.26039,3.26039 l -3.47922,0 -4.2603896,0 0,-6.73961 z m 0.9999999,11.000001 -9.99999989,0 0,-1 9.99999989,0 z m 0.9999997,-1 -10.99999959,0 0,-3.26039 0,-3.47922 c 0,-1.806256 1.45413399,-3.26039 3.26039009,-3.26039 l 3.4792199,0 4.2603896,0 0,6.73961 z m -31.999999,0 0,-10 4.26039,0 3.47922,0 c 1.806256,0 3.26039,1.454134 3.26039,3.26039 l 0,3.47922 c 0,1.806256 -1.454134,3.26039 -3.26039,3.26039 l -3.47922,0 c -1.806256,0 -4.26039,0 -4.26039,0 z m 1,0.999999 -10,0 0,-1 10,0 z m 0.957627,-11 0,10 -1,0 0,-10 z m -10.957627,-1 10,0 0,1 -10,0 z m 10,1 0,10 -10,0 0,-10 z M -70,-50.999997 l 10,0 0,1 -10,0 z m -0.957627,11 0,-10 1,0 0,10 z m 10.957627,1 -10,0 0,-1 10,0 z m -10,-1 0,-10 10,0 0,10 z m 0,0.999999 -10,0 0,-1 10,0 z m 0.957627,-11 0,10 -1,0 0,-10 z m -10.957627,-1 10,0 0,1 -10,0 z m 10,1 0,10 -10,0 0,-10 z m -41,10.000001 0,-10 1,0 0,10 z m 1,1 0,-11 3.26039,0 3.47922,0 c 1.80625,0 3.26039,1.454134 3.26039,3.26039 l 0,3.47922 0,4.26039 -6.73961,0 z m -10,-1.042374 10,0 0,1 -10,0 z m 11,-9.957627 0,10 -1,0 0,-10 z m -11,-0.957627 10,0 0,1 -10,0 z m -1,10.957627 0,-10 1,0 0,10 z m 1,-10 10,0 0,10 -10,0 z m -11,10.000001 0,-10 1,0 0,10 z m 11,0.957627 -10,0 0,-1 10,0 z m 1,-10.957627 0,10 -1,0 0,-10 z m -1,10 -10,0 0,-10 10,0 z m -9,-10.000001 0,10 -1,0 0,-10 z m -1,-1 0,11 -3.26039,0 -3.47922,0 c -1.80626,0 -3.26039,-1.454134 -3.26039,-3.26039 l 0,-3.47922 0,-4.26039 6.73961,0 z m -40,0 10,0 0,1 -10,0 z m -1,1 11,0 0,3.26039 0,3.47922 c 0,1.806256 -1.45413,3.26039 -3.26039,3.26039 l -3.47922,0 -4.26039,0 0,-6.73961 z m 1,11.000001 -10,0 0,-1 10,0 z m 1,-1 -11,0 0,-3.26039 0,-3.47922 c 0,-1.806256 1.45413,-3.26039 3.26039,-3.26039 l 3.47922,0 4.26039,0 0,6.73961 z m 178.9999974,-10.033901 9.9999996,0 0,1.000001 -9.9999996,0 z m 3e-7,-10.940677 9.9999993,0 0,1 -9.9999993,0 z m -3e-7,0.974576 9.9999996,0 0,10 -9.9999996,0 z M -30,-50.033898 l 10,0 0,1.000001 -10,0 z m 1e-6,-10.940677 9.999999,0 0,1 -9.999999,0 z m -1e-6,0.974576 10,0 0,10 -10,0 z m -16.739612,0 3.47922,0 c 1.806256,0 3.26039,1.454134 3.26039,3.26039 l 0,3.47922 c 0,1.806256 -1.454134,3.26039 -3.26039,3.26039 l -3.47922,0 c -1.806256,0 -3.26039,-1.454134 -3.26039,-3.26039 l 0,-3.47922 c 0,-1.806256 1.454134,-3.26039 3.26039,-3.26039 z M -70,-60.999998 l 10,0 0,1 -10,0 z m -0.957627,11 0,-10 1,0 0,10 z m 10.957627,1 -10,0 0,-1 10,0 z m -10,-1 0,-10 10,0 0,10 z m -11,0 0,-10 1,0 0,10 z m 11,0.957627 -10,0 0,-1 10,0 z m 1,-10.957627 0,10 -1,0 0,-10 z m -1,10 -10,0 0,-10 10,0 z m -9.000001,-10.000001 0,10 -1,0 0,-10 z m -1,-1 0,11 -3.26039,0 -3.47922,0 c -1.806256,0 -3.26039,-1.454134 -3.26039,-3.26039 l 0,-3.47922 0,-4.26039 6.73961,0 z M -120,-50.033898 l 10,0 0,1.000001 -10,0 z m 0,-10.940677 10,0 0,1 -10,0 z m 0,0.974576 10,0 0,10 -10,0 z m -10,11.000001 -10,0 0,-4.26039 0,-3.47922 c 0,-1.806256 1.45413,-3.26039 3.26039,-3.26039 l 3.47922,0 c 1.80626,0 3.26039,1.454134 3.26039,3.26039 l 0,3.47922 c 0,1.806256 0,4.26039 0,4.26039 z m -30,-12.000001 10,0 0,1 -10,0 z m -1,1 11,0 0,3.26039 0,3.47922 c 0,1.806256 -1.45413,3.26039 -3.26039,3.26039 l -3.47922,0 -4.26039,0 0,-6.73961 z m 1,11.000001 -10,0 0,-1 10,0 z m 1,-1 -11,0 0,-3.26039 0,-3.47922 c 0,-1.806256 1.45413,-3.26039 3.26039,-3.26039 l 3.47922,0 4.26039,0 0,6.73961 z m 178.999999,-9.000001 -10.0000005,0 0,-4.26039 0,-3.47922 c 0,-1.806256 1.4541345,-3.26039 3.2603905,-3.26039 l 3.47922,0 c 1.806256,0 3.26039,1.454134 3.26039,3.26039 l 0,3.47922 c 0,1.806256 0,4.26039 0,4.26039 z m -26.7396101,-10.999998 3.4792199,0 c 1.8062561,0 3.26039009,1.454134 3.26039009,3.26039 l 0,3.47922 c 0,1.806256 -1.45413399,3.26039 -3.26039009,3.26039 l -3.4792199,0 c -1.8062561,0 -3.2603899,-1.454134 -3.2603899,-3.26039 l 0,-3.47922 c 0,-1.806256 1.4541338,-3.26039 3.2603899,-3.26039 z M -30,-60.033895 l 10,0 0,1 -10,0 z m 1e-6,-10.940678 9.999999,0 0,1 -9.999999,0 z m -1e-6,0.974576 10,0 0,10 -10,0 z m -40,9.966102 10,0 0,1 -10,0 z m 0,-10.940678 10,0 0,1 -10,0 z m 0,0.974576 10,0 0,10 -10,0 z m -21.000003,9.999998 0,-10 1,0 0,10 z m 1,1 0,-11 3.26039,0 3.47922,0 c 1.806256,0 3.26039,1.454134 3.26039,3.26039 l 0,3.47922 0,4.26039 -6.73961,0 z M -89,-69.999997 l 0,10 -1,0 0,-10 z m -11,-0.957627 10,0 0,1 -10,0 z m -1,10.957627 0,-10 1,0 0,10 z m 1,-10 10,0 0,10 -10,0 z m 0.999999,0 0,10 -0.999999,0 0,-10 z M -110,-70.957624 l 10,0 0,1 -10,0 z m -1,10.957627 0,-10 1,0 0,10 z m 1,-10 10,0 0,10 -10,0 z m -10,9.957628 10,0 0,0.999999 -10,0 z m 11,-9.957628 0,10 -1,0 0,-10 z m -11,-0.957627 10,0 0,1 -10,0 z m -1,10.957627 0,-10 1,0 0,10 z m 1,-10 10,0 0,10 -10,0 z m 1,0 0,10 -4.26039,0 -3.47922,0 c -1.80626,0 -3.26039,-1.454134 -3.26039,-3.26039 l 0,-3.47922 c 0,-1.806256 1.45413,-3.26039 3.26039,-3.26039 l 3.47922,0 c 1.80625,0 4.26039,0 4.26039,0 z m -41,9.966102 10,0 0,1 -10,0 z m 0,-10.940678 10,0 0,1 -10,0 z m 0,0.974576 10,0 0,10 -10,0 z m -21,9.999998 0,-10 4.26039,0 3.47922,0 c 1.80625,0 3.26039,1.454134 3.26039,3.26039 l 0,3.47922 c 0,1.806256 -1.45414,3.26039 -3.26039,3.26039 l -3.47922,0 c -1.80626,0 -4.26039,0 -4.26039,0 z m 2,-9.999998 0,10 -4.26039,0 -3.47922,0 c -1.80626,0 -3.26039,-1.454134 -3.26039,-3.26039 l 0,-3.47922 c 0,-1.806256 1.45413,-3.26039 3.26039,-3.26039 l 3.47922,0 c 1.80625,0 4.26039,0 4.26039,0 z m 182.26039,-10.000001 3.4792199,0 C 8.545866,-79.999998 10,-78.545864 10,-76.739608 l 0,3.47922 c 0,1.806256 -1.454134,3.26039 -3.2603901,3.26039 l -3.4792199,0 c -1.8062561,0 -3.260390050000001,-1.454134 -3.260390050000001,-3.26039 l 0,-3.47922 C -5.0000001e-8,-78.545864 1.4541339,-79.999998 3.26039,-79.999998 z M -30,-80.999997 l 10,0 0,1 -10,0 z m -0.957627,11 0,-10 1,0 0,10 z m 10.957627,1 -10,0 0,-1 10,0 z m -10,-1 0,-10 10,0 0,10 z m 0.999999,-10.000001 0,10 -1,0 0,-10 z m -11,-0.957627 10,0 0,1 -10,0 z m -1,10.957627 0,-10 1,0 0,10 z m 1,-10 10,0 0,10 -10,0 z m -9.966101,0 0,10 -1.000001,0 0,-10 z m 10.940677,1e-6 0,9.999999 -1,0 0,-9.999999 z m -0.974576,-1e-6 0,10 -10,0 0,-10 z m -19.966102,0 0,10 -1.000001,0 0,-10 z m 10.940677,1e-6 0,9.999999 -1,0 0,-9.999999 z m -0.974576,-1e-6 0,10 -10,0 0,-10 z m -20.999997,10.000001 0,-10 1,0 0,10 z m 11,0.957627 -10,0 0,-1 10,0 z m 1,-10.957627 0,10 -1,0 0,-10 z m -1,10 -10,0 0,-10 10,0 z M -69,-79.999998 l 0,10 -4.26039,0 -3.47922,0 c -1.806256,0 -3.26039,-1.454134 -3.26039,-3.26039 l 0,-3.47922 c 0,-1.806256 1.454134,-3.26039 3.26039,-3.26039 l 3.47922,0 c 1.806256,0 4.26039,0 4.26039,0 z m -31,-0.999999 10,0 0,1 -10,0 z m -0.95763,11 0,-10 1.000003,0 0,10 z m 10.95763,1 -10,0 0,-1 10,0 z m -10,-1 0,-10 10,0 0,10 z m -11,0 0,-10 1,0 0,10 z m 11,0.957627 -10,0 0,-1 10,0 z m 1,-10.957627 0,10 -1,0 0,-10 z m -1,10 -10,0 0,-10 10,0 z m -10,1 -10,0 0,-1 10,0 z m 1,-1 -11,0 0,-3.26039 0,-3.47922 c 0,-1.806256 1.45413,-3.26039 3.26039,-3.26039 l 3.47922,0 4.26039,0 0,6.73961 z m -41,-11.000001 10,0 0,1 -10,0 z m -1,1 11,0 0,3.26039 0,3.47922 c 0,1.806256 -1.45414,3.26039 -3.26039,3.26039 l -3.47922,0 -4.26039,0 0,-6.73961 z m -9,9.957628 10,0 0,0.999999 -10,0 z m 11,-9.957628 0,10 -1,0 0,-10 z m -11,-0.957627 10,0 0,1 -10,0 z m -1,10.957627 0,-10 1,0 0,10 z m 1,-10 10,0 0,10 -10,0 z m 1,0 0,10 -1,0 0,-10 z m -1,-1 0,11 -3.26039,0 -3.47922,0 c -1.80626,0 -3.26039,-1.454134 -3.26039,-3.26039 l 0,-3.47922 0,-4.26039 6.73961,0 z m -51,11.000001 0,-10 4.26039,0 3.47922,0 c 1.80625,0 3.26039,1.454134 3.26039,3.26039 l 0,3.47922 c 0,1.806256 -1.45414,3.26039 -3.26039,3.26039 l -3.47922,0 c -1.80626,0 -4.26039,0 -4.26039,0 z m -8.9661,-10.000001 0,10 -1,0 0,-10 z m 10.94068,1e-6 0,9.999999 -1,0 0,-9.999999 z m -0.97458,-1e-6 0,10 -10,0 0,-10 z m -19.9661,0 0,10 -1,0 0,-10 z m 10.94067,1e-6 0,9.999999 -1,0 0,-9.999999 z m -0.97457,-1e-6 0,10 -10,0 0,-10 z m -9,0 0,10 -1,0 0,-10 z m -11,-0.957627 10,0 0,1 -10,0 z m -1,10.957627 0,-10 1,0 0,10 z m 1,-10 10,0 0,10 -10,0 z m -9.9661,0 0,10 -1,0 0,-10 z m 10.94068,1e-6 0,9.999999 -1,0 0,-9.999999 z m -0.97458,-1e-6 0,10 -10,0 0,-10 z m -9,0 0,10 -1,0 0,-10 z m -1,-1 0,11 -3.26039,0 -3.47922,0 c -1.80626,0 -3.26039,-1.454134 -3.26039,-3.26039 l 0,-3.47922 0,-4.26039 6.73961,0 z m 259.9999974,-10.000001 9.9999996,0 0,4.26039 0,3.47922 c 0,1.806256 -1.454134,3.26039 -3.26039,3.26039 l -3.47922,0 c -1.806256,0 -3.2603896,-1.454134 -3.2603896,-3.26039 l 0,-3.47922 c 0,-1.806256 0,-4.26039 0,-4.26039 z m -30.9999994,11.000001 0,-10 4.26039,0 3.47922,0 c 1.806256,0 3.26039,1.454134 3.26039,3.26039 l 0,3.47922 c 0,1.806256 -1.454134,3.26039 -3.26039,3.26039 l -3.47922,0 c -1.806256,0 -4.26039,0 -4.26039,0 z m -10,0 0,-10 1,0 0,10 z m 11,0.957627 -10,0 0,-1 10,0 z m 1,-10.957627 0,10 -1,0 0,-10 z m -1,10 -10,0 0,-10 10,0 z m -9.999998,1 -10,0 0,-1 10,0 z m 1,-1 -11,0 0,-3.26039 0,-3.47922 c 0,-1.806256 1.454134,-3.26039 3.26039,-3.26039 l 3.47922,0 4.26039,0 0,6.73961 z m -62.000003,0 0,-10 4.26039,0 3.47922,0 c 1.806256,0 3.26039,1.454134 3.26039,3.26039 l 0,3.47922 c 0,1.806256 -1.454134,3.26039 -3.26039,3.26039 l -3.47922,0 c -1.806256,0 -4.26039,0 -4.26039,0 z m 1,0.999999 -9.999997,0 0,-1 9.999997,0 z m 0.957628,-11 0,10 -1,0 0,-10 z m -10.957625,-1 9.999997,0 0,1 -9.999997,0 z m 9.999997,1 0,10 -9.999997,0 0,-10 z M -141,-79.999998 l 0,-10 4.26039,0 3.47922,0 c 1.80626,0 3.26039,1.454134 3.26039,3.26039 l 0,3.47922 c 0,1.806256 -1.45413,3.26039 -3.26039,3.26039 l -3.47922,0 c -1.80626,0 -4.26039,0 -4.26039,0 z m -10,0 0,-10 1,0 0,10 z m 11,0.957627 -10,0 0,-1 10,0 z m 1,-10.957627 0,10 -1,0 0,-10 z m -1,10 -10,0 0,-10 10,0 z m -21,0 0,-10 1,0 0,10 z m 11,0.957627 -10,0 0,-1 10,0 z m 1,-10.957627 0,10 -1,0 0,-10 z m -1,10 -10,0 0,-10 10,0 z m -20,-0.04237 10,0 0,1 -10,0 z m 11,-9.957627 0,10 -1,0 0,-10 z m -11,-0.957627 10,0 0,1 -10,0 z m -1,10.957627 0,-10 1,0 0,10 z m 1,-10 10,0 0,10 -10,0 z m 1,0 0,10 -4.26039,0 -3.47922,0 c -1.80626,0 -3.26039,-1.454134 -3.26039,-3.26039 l 0,-3.47922 c 0,-1.806256 1.45413,-3.26039 3.26039,-3.26039 l 3.47922,0 c 1.80626,0 4.26039,0 4.26039,0 z m -27.73961,0 3.47922,0 c 1.80626,0 3.26039,1.454134 3.26039,3.26039 l 0,3.47922 c 0,1.806256 -1.45413,3.26039 -3.26039,3.26039 l -3.47922,0 c -1.80626,0 -3.26039,-1.454134 -3.26039,-3.26039 l 0,-3.47922 c 0,-1.806256 1.45413,-3.26039 3.26039,-3.26039 z M -240,-80.033897 l 10,0 0,1 -10,0 z m 0,-10.940678 10,0 0,1 -10,0 z m 0,0.974576 10,0 0,10 -10,0 z m -20,9.966102 10,0 0,1 -10,0 z m 0,-10.940678 10,0 0,1 -10,0 z m 0,0.974576 10,0 0,10 -10,0 z m 269.9999974,-0.0339 9.9999996,0 0,1 -9.9999996,0 z m 3e-7,-10.940682 9.9999993,0 0,1.000004 -9.9999993,0 z m -3e-7,0.97458 9.9999996,0 0,10 -9.9999996,0 z m -16.7396085,0 3.4792199,0 c 1.8062561,0 3.26039009,1.454134 3.26039009,3.26039 l 0,3.47922 C -1.11e-6,-91.454134 -1.4541351,-90 -3.2603912,-90 l -3.4792199,0 c -1.8062561,0 -3.2603899,-1.454134 -3.2603899,-3.26039 l 0,-3.47922 c 0,-1.806256 1.4541338,-3.26039 3.2603899,-3.26039 z M -70,-101 l 10,0 0,4.26039 0,3.47922 C -60,-91.454134 -61.454134,-90 -63.26039,-90 l -3.47922,0 C -68.545866,-90 -70,-91.454134 -70,-93.26039 l 0,-3.47922 C -70,-98.545866 -70,-101 -70,-101 z m -31,11.000001 0,-10 1,0 0,10 z m 1,1 0,-11 3.26039,0 3.47922,0 c 1.806256,0 3.26039,1.454134 3.26039,3.26039 l 0,3.47922 0,4.26039 -6.73961,0 z M -99,-100 l 0,10 -1,0 0,-10 z m -1,-1 0,11 -3.26039,0 -3.47922,0 C -108.54587,-90 -110,-91.454134 -110,-93.26039 l 0,-3.47922 0,-4.26039 6.73961,0 z m -70,10.966102 10,0 0,1 -10,0 z m 0,-10.940682 10,0 0,1.000004 -10,0 z m 0,0.97458 10,0 0,10 -10,0 z m -20,-1 10,0 0,4.26039 0,3.47922 c 0,1.806256 -1.45414,3.26039 -3.26039,3.26039 l -3.47922,0 C -188.54587,-90 -190,-91.454134 -190,-93.26039 l 0,-3.47922 c 0,-1.806256 0,-4.26039 0,-4.26039 z m -21,11.000001 0,-10 4.26039,0 3.47922,0 c 1.80625,0 3.26039,1.454134 3.26039,3.26039 l 0,3.47922 c 0,1.806256 -1.45414,3.26039 -3.26039,3.26039 l -3.47922,0 c -1.80626,0 -4.26039,0 -4.26039,0 z M -209,-100 l 0,10 -1,0 0,-10 z m -11,-0.95763 10,0 0,1.000003 -10,0 z M -221,-90 l 0,-10 1,0 0,10 z m 1,-10 10,0 0,10 -10,0 z m -9.9661,0 0,10 -1,0 0,-10 z m 10.94067,0 0,10 -1,0 0,-10 z m -0.97457,0 0,10 -10,0 0,-10 z m -10,11 -10,0 0,-1 10,0 z m 0.95763,-11 0,10 -1,0 0,-10 z M -240,-101 l 10,0 0,1 -10,0 z m 10,1 0,10 -10,0 0,-10 z m -20,11.000001 -10,0 0,-4.26039 0,-3.47922 c 0,-1.806256 1.45413,-3.26039 3.26039,-3.26039 l 3.47922,0 c 1.80625,0 3.26039,1.454134 3.26039,3.26039 l 0,3.47922 c 0,1.806256 0,4.26039 0,4.26039 z M 9.9999974,-100.0339 l 9.9999996,0 0,1.000005 -9.9999996,0 z m 3e-7,-10.94067 9.9999993,0 0,1 -9.9999993,0 z m -3e-7,0.97457 9.9999996,0 0,10.000003 -9.9999996,0 z M -30,-111 l 10,0 0,4.26039 0,3.47922 c 0,1.80626 -1.454134,3.260393 -3.26039,3.260393 l -3.47922,0 c -1.806256,0 -3.26039,-1.454133 -3.26039,-3.260393 l 0,-3.47922 c 0,-1.80625 0,-4.26039 0,-4.26039 z m -30.999999,11 0,-10 4.26039,0 3.47922,0 c 1.806256,0 3.26039,1.45413 3.26039,3.26039 l 0,3.47922 c 0,1.80626 -1.454134,3.26039 -3.26039,3.26039 l -3.47922,0 c -1.806256,0 -4.26039,0 -4.26039,0 z m -10,0 0,-10 1,0 0,10 z m 11,0.957627 -10,0 0,-0.999997 10,0 z m 1,-10.957627 0,10 -1,0 0,-10 z m -1,10 -10,0 0,-10 10,0 z M -69,-110 l 0,10.000003 -1,0 L -70,-110 z m -1,-1 0,11.000003 -3.26039,0 -3.47922,0 c -1.806256,0 -3.26039,-1.454133 -3.26039,-3.260393 l 0,-3.47922 0,-4.26039 6.73961,0 z m -30,12 -10,0 0,-4.26039 0,-3.47922 c 0,-1.80626 1.45413,-3.26039 3.26039,-3.26039 l 3.47922,0 c 1.80626,0 3.26039,1.45413 3.26039,3.26039 l 0,3.47922 c 0,1.80626 0,4.26039 0,4.26039 z m -26.73961,-11 3.47922,0 c 1.80626,0 3.26039,1.45414 3.26039,3.26039 l 0,3.47922 c 0,1.80626 -1.45413,3.260393 -3.26039,3.260393 l -3.47922,0 c -1.80626,0 -3.26039,-1.454133 -3.26039,-3.260393 l 0,-3.47922 c 0,-1.80625 1.45413,-3.26039 3.26039,-3.26039 z m -20,0 3.47922,0 c 1.80625,0 3.26039,1.45414 3.26039,3.26039 l 0,3.47922 c 0,1.80626 -1.45414,3.260393 -3.26039,3.260393 l -3.47922,0 c -1.80626,0 -3.26039,-1.454133 -3.26039,-3.260393 l 0,-3.47922 c 0,-1.80625 1.45413,-3.26039 3.26039,-3.26039 z M -171,-100 l 0,-10 1,0 0,10 z m 1,1 0,-11 3.26039,0 3.47922,0 c 1.80626,0 3.26039,1.45413 3.26039,3.26039 l 0,3.47922 0,4.26039 -6.73961,0 z m 1,-11 0,10.000003 -1,0 L -170,-110 z m -11,-0.95762 10,0 0,1 -10,0 z m -1,10.957623 0,-10.000003 1,0 0,10.000003 z M -180,-110 l 10,0 0,10.000003 -10,0 z m 0,11.000003 -10,0 0,-1 10,0 z M -179.04237,-110 l 0,10.000003 -1,0 0,-10.000003 z M -190,-111 l 10,0 0,1 -10,0 z m 10,1 0,10.000003 -10,0 L -190,-110 z m -30,11 -10,0 0,-4.26039 0,-3.47922 c 0,-1.80626 1.45413,-3.26039 3.26039,-3.26039 l 3.47922,0 c 1.80625,0 3.26039,1.45413 3.26039,3.26039 l 0,3.47922 c 0,1.80626 0,4.26039 0,4.26039 z m -31,-1 0,-10 1,0 0,10 z m 1,1 0,-11 3.26039,0 3.47922,0 c 1.80626,0 3.26039,1.45413 3.26039,3.26039 l 0,3.47922 0,4.26039 -6.73961,0 z m 1,-11 0,10.000003 -4.26039,0 -3.47922,0 c -1.80626,0 -3.26039,-1.454133 -3.26039,-3.260393 l 0,-3.47922 c 0,-1.80625 1.45413,-3.26039 3.26039,-3.26039 l 3.47922,0 c 1.80626,0 4.26039,0 4.26039,0 z m 247.9999974,0 0,-10 1,0 0,10 z m 1,1 0,-11 3.2603896,0 3.47922,0 c 1.806256,0 3.26039,1.45414 3.26039,3.26039 l 0,3.47922 0,4.26039 -6.73961,0 z m 0.9999996,-11 0,10 -4.2603896,0 -3.47922,0 c -1.806256,0 -3.26038999,-1.45413 -3.26038999,-3.26039 l 0,-3.47922 C -2.59e-6,-118.54586 1.4541314,-120 3.2603874,-120 l 3.47922,0 c 1.806256,0 4.2603896,0 4.2603896,0 z M -30,-110.0339 l 10,0 0,1 -10,0 z m 1e-6,-10.94067 9.999999,0 0,1 -9.999999,0 z M -30,-120 l 10,0 0,10 -10,0 z m -51.000001,10 0,-10 1,0 0,10 z m 1,1 0,-11 3.26039,0 3.47922,0 c 1.806256,0 3.26039,1.45414 3.26039,3.26039 l 0,3.47922 0,4.26039 -6.73961,0 z m 1,-11 0,10 -1,0 0,-10 z m -1,-1 0,11 -3.26039,0 -3.47922,0 c -1.806256,0 -3.26039,-1.45413 -3.26039,-3.26039 l 0,-3.47922 0,-4.26039 6.73961,0 z M -160,-121 l 10,0 0,4.26039 0,3.47922 c 0,1.80626 -1.45413,3.26039 -3.26039,3.26039 l -3.47922,0 c -1.80626,0 -3.26039,-1.45413 -3.26039,-3.26039 l 0,-3.47922 c 0,-1.80625 0,-4.26039 0,-4.26039 z m -20,0 10,0 0,1 -10,0 z m -0.95763,11 0,-10 1,0 0,10 z m 10.95763,1 -10,0 0,-1 10,0 z m -10,-1 0,-10 10,0 0,10 z m -11,0 0,-10 1,0 0,10 z m 11,0.95763 -10,0 0,-1 10,0 z m 1,-10.95763 0,10 -1,0 0,-10 z m -1,10 -10,0 0,-10 10,0 z m -9,-10 0,10 -1,0 0,-10 z m -11,-0.95763 10,0 0,1 -10,0 z m -1,10.95763 0,-10 1,0 0,10 z m 1,-10 10,0 0,10 -10,0 z m 1,0 0,10 -4.26039,0 -3.47922,0 c -1.80626,0 -3.26039,-1.45413 -3.26039,-3.26039 l 0,-3.47922 c 0,-1.80625 1.45413,-3.26039 3.26039,-3.26039 l 3.47922,0 c 1.80626,0 4.26039,0 4.26039,0 z m -61,-1 10,0 0,4.26039 0,3.47922 c 0,1.80626 -1.45413,3.26039 -3.26039,3.26039 l -3.47922,0 c -1.80625,0 -3.26039,-1.45413 -3.26039,-3.26039 l 0,-3.47922 c 0,-1.80625 0,-4.26039 0,-4.26039 z m 238.999998,1 0,-10 4.26039,0 3.47922,0 c 1.806256,0 3.26039,1.45414 3.26039,3.26039 l 0,3.47922 c 0,1.80626 -1.454134,3.26039 -3.26039,3.26039 l -3.47922,0 c -1.806256,0 -4.26039,0 -4.26039,0 z M -30,-120.04237 l 10,0 0,1 -10,0 z M -19,-130 l 0,10 -1,0 0,-10 z m -11,-0.95763 10,0 0,1 -10,0 z M -31,-120 l 0,-10 1,0 0,10 z m 1,-10 10,0 0,10 -10,0 z m 0.999999,0 0,10 -1,0 0,-10 z m -11,-0.95763 10,0 0,1 -10,0 z m -1,10.95763 0,-10 1,0 0,10 z m 1,-10 10,0 0,10 -10,0 z m 1,0 0,10 -1,0 0,-10 z m -1,-1 0,11 -3.26039,0 -3.47922,0 c -1.806256,0 -3.26039,-1.45413 -3.26039,-3.26039 l 0,-3.47922 0,-4.26039 6.73961,0 z M -70,-131 l 10,0 0,4.26039 0,3.47922 c 0,1.80626 -1.454134,3.26039 -3.26039,3.26039 l -3.47922,0 C -68.545866,-120 -70,-121.45413 -70,-123.26039 l 0,-3.47922 c 0,-1.80626 0,-4.26039 0,-4.26039 z m -21.000003,11 0,-10 1,0 0,10 z m 1,1 0,-11 3.26039,0 3.47922,0 c 1.806256,0 3.26039,1.45414 3.26039,3.26039 l 0,3.47922 0,4.26039 -6.73961,0 z M -89,-130 l 0,10 -1,0 0,-10 z m -11,-0.95763 10,0 0,1 -10,0 z m -1,10.95763 0,-10 1,0 0,10 z m 1,-10 10,0 0,10 -10,0 z m 1,0 0,10 -4.26039,0 -3.47922,0 c -1.80626,0 -3.26039,-1.45413 -3.26039,-3.26039 l 0,-3.47922 c 0,-1.80626 1.45413,-3.26039 3.26039,-3.26039 l 3.47922,0 c 1.80626,0 4.26039,0 4.26039,0 z m -61,9.9661 10,0 0,1 -10,0 z m 0,-10.94068 10,0 0,1 -10,0 z m 0,0.97458 10,0 0,10 -10,0 z m -20,9.9661 10,0 0,1 -10,0 z m 0,-10.94068 10,0 0,1 -10,0 z m 0,0.97458 10,0 0,10 -10,0 z m -10,11 -10,0 0,-4.26039 0,-3.47922 c 0,-1.80625 1.45413,-3.26039 3.26039,-3.26039 l 3.47922,0 c 1.80625,0 3.26039,1.45414 3.26039,3.26039 l 0,3.47922 c 0,1.80626 0,4.26039 0,4.26039 z m -30,-12 10,0 0,1 -10,0 z m -1,1 11,0 0,3.26039 0,3.47922 c 0,1.80626 -1.45414,3.26039 -3.26039,3.26039 l -3.47922,0 -4.26039,0 0,-6.73961 z m 2,0 0,10 -1,0 0,-10 z m -11,-0.95763 10,0 0,1 -10,0 z m -1,10.95763 0,-10 1,0 0,10 z m 1,-10 10,0 0,10 -10,0 z m -9.9661,0 0,10 -1,0 0,-10 z m 10.94068,0 0,10 -1,0 0,-10 z m -0.97458,0 0,10 -10,0 0,-10 z m -9,0 0,10 -1,0 0,-10 z m -11,-0.95763 10,0 0,1 -10,0 z m -1,10.95763 0,-10 1,0 0,10 z m 1,-10 10,0 0,10 -10,0 z m 0,11 -10,0 0,-1 10,0 z m 1,-1 -11,0 0,-3.26039 0,-3.47922 c 0,-1.80625 1.45413,-3.26039 3.26039,-3.26039 l 3.47922,0 4.26039,0 0,6.73961 z m 258.9999974,-21 9.9999996,0 0,4.26039 0,3.47922 c 0,1.80626 -1.454134,3.26039 -3.26039,3.26039 l -3.47922,0 c -1.806256,0 -3.2603896,-1.45413 -3.2603896,-3.26039 l 0,-3.47922 c 0,-1.80625 0,-4.26039 0,-4.26039 z M -30,-141 l 10,0 0,1 -10,0 z m -0.957627,11 0,-10 1,0 0,10 z M -20,-129 l -10,0 0,-1 10,0 z m -10,-1 0,-10 10,0 0,10 z m -11,0 0,-10 1,0 0,10 z m 11,0.95763 -10,0 0,-1 10,0 z M -29,-140 l 0,10 -1,0 0,-10 z m -1,10 -10,0 0,-10 10,0 z m -20.000002,-0.0424 10,0 0,1 -10,0 z m 11,-9.95763 0,10 -1,0 0,-10 z m -11,-0.95762 10,0 0,1 -10,0 z m -1,10.95762 0,-10 1,0 0,10 z m 1,-10 10,0 0,10 -10,0 z m -9.966101,0 0,10 -1.000001,0 0,-10 z m 10.940677,0 0,10 -1,0 0,-10 z m -0.974576,0 0,10 -10,0 0,-10 z m -9.999997,11 -10,0 0,-1 10,0 z m 1,-1 -11,0 0,-3.26039 0,-3.47922 c 0,-1.80626 1.454134,-3.26039 3.26039,-3.26039 l 3.47922,0 4.26039,0 0,6.73961 z m -31.000004,1 -9.999997,0 0,-4.26039 0,-3.47922 c 0,-1.80626 1.454131,-3.26039 3.260388,-3.26039 l 3.479219,0 c 1.806257,0 3.26039,1.45413 3.26039,3.26039 l 0,3.47922 c 0,1.80626 0,4.26039 0,4.26039 z M -151,-130 l 0,-10 4.26039,0 3.47922,0 c 1.80625,0 3.26039,1.45413 3.26039,3.26039 l 0,3.47922 c 0,1.80626 -1.45414,3.26039 -3.26039,3.26039 l -3.47922,0 c -1.80626,0 -4.26039,0 -4.26039,0 z m 1,1 -10,0 0,-1 10,0 z m 1,-1 -11,0 0,-3.26039 0,-3.47922 c 0,-1.80626 1.45413,-3.26039 3.26039,-3.26039 l 3.47922,0 4.26039,0 0,6.73961 z m -31,-0.0339 10,0 0,1 -10,0 z m 0,-10.94067 10,0 0,1 -10,0 z m 0,0.97457 10,0 0,10 -10,0 z m -31,10 0,-10 4.26039,0 3.47922,0 c 1.80625,0 3.26039,1.45413 3.26039,3.26039 l 0,3.47922 c 0,1.80626 -1.45414,3.26039 -3.26039,3.26039 l -3.47922,0 c -1.80626,0 -4.26039,0 -4.26039,0 z m -9,-0.0424 10,0 0,1 -10,0 z m 11,-9.95763 0,10 -1,0 0,-10 z m -11,-0.95762 10,0 0,1 -10,0 z m -1,10.95762 0,-10 1,0 0,10 z m 1,-10 10,0 0,10 -10,0 z m 0,11 -10,0 0,-1 10,0 z m 1,-1 -11,0 0,-3.26039 0,-3.47922 c 0,-1.80626 1.45413,-3.26039 3.26039,-3.26039 l 3.47922,0 4.26039,0 0,6.73961 z m -21,1 -10,0 0,-4.26039 0,-3.47922 c 0,-1.80626 1.45413,-3.26039 3.26039,-3.26039 l 3.47922,0 c 1.80626,0 3.26039,1.45413 3.26039,3.26039 l 0,3.47922 c 0,1.80626 0,4.26039 0,4.26039 z m 249.9999974,-22 9.9999996,0 0,1 -9.9999996,0 z m -0.9576271,11 0,-10 0.9999997,0 0,10 z m 10.9576267,1 -9.9999996,0 0,-1 9.9999996,0 z m -9.9999996,-1 0,-10 9.9999996,0 0,10 z m -9.96610159,-10 0,10 -1.0000004,0 0,-10 z m 10.94067819,0 0,10 -1.0000004,0 0,-10 z m -0.9745766,0 0,10 -9.99999999,0 0,-10 z M 1,-150 l 0,10 -4.26039,0 -3.47922,0 C -8.545866,-140 -10,-141.45413 -10,-143.26039 l 0,-3.47922 C -10,-148.54586 -8.545866,-150 -6.73961,-150 l 3.47922,0 C -1.454134,-150 1,-150 1,-150 z m -21.000002,11 -10,0 0,-4.26039 0,-3.47922 c 0,-1.80625 1.454134,-3.26039 3.26039,-3.26039 l 3.47922,0 c 1.806256,0 3.26039,1.45414 3.26039,3.26039 l 0,3.47922 c 0,1.80626 0,4.26039 0,4.26039 z m -19.999999,0 -10,0 0,-4.26039 0,-3.47922 c 0,-1.80625 1.454134,-3.26039 3.26039,-3.26039 l 3.47922,0 c 1.806256,0 3.26039,1.45414 3.26039,3.26039 l 0,3.47922 c 0,1.80626 0,4.26039 0,4.26039 z m -46.739612,-11 3.47922,0 c 1.806256,0 3.26039,1.45414 3.26039,3.26039 l 0,3.47922 c 0,1.80626 -1.454134,3.26039 -3.26039,3.26039 l -3.47922,0 c -1.806256,0 -3.26039,-1.45413 -3.26039,-3.26039 l 0,-3.47922 c 0,-1.80625 1.454134,-3.26039 3.26039,-3.26039 z M -140,-151 l 10,0 0,4.26039 0,3.47922 c 0,1.80626 -1.45413,3.26039 -3.26039,3.26039 l -3.47922,0 c -1.80626,0 -3.26039,-1.45413 -3.26039,-3.26039 l 0,-3.47922 c 0,-1.80625 0,-4.26039 0,-4.26039 z m -31,11 0,-10 4.26039,0 3.47922,0 c 1.80626,0 3.26039,1.45414 3.26039,3.26039 l 0,3.47922 c 0,1.80626 -1.45413,3.26039 -3.26039,3.26039 l -3.47922,0 c -1.80626,0 -4.26039,0 -4.26039,0 z m 1,1 -10,0 0,-1 10,0 z m 1,-1 -11,0 0,-3.26039 0,-3.47922 c 0,-1.80625 1.45413,-3.26039 3.26039,-3.26039 l 3.47922,0 4.26039,0 0,6.73961 z m -31,-11 10,0 0,4.26039 0,3.47922 c 0,1.80626 -1.45413,3.26039 -3.26039,3.26039 l -3.47922,0 c -1.80626,0 -3.26039,-1.45413 -3.26039,-3.26039 l 0,-3.47922 c 0,-1.80625 0,-4.26039 0,-4.26039 z m -10,12 -10,0 0,-4.26039 0,-3.47922 c 0,-1.80625 1.45413,-3.26039 3.26039,-3.26039 l 3.47922,0 c 1.80625,0 3.26039,1.45414 3.26039,3.26039 l 0,3.47922 c 0,1.80626 0,4.26039 0,4.26039 z m -26.73961,-11 3.47922,0 c 1.80626,0 3.26039,1.45414 3.26039,3.26039 l 0,3.47922 c 0,1.80626 -1.45413,3.26039 -3.26039,3.26039 l -3.47922,0 c -1.80626,0 -3.26039,-1.45413 -3.26039,-3.26039 l 0,-3.47922 c 0,-1.80625 1.45413,-3.26039 3.26039,-3.26039 z M -260,-151 l 10,0 0,4.26039 0,3.47922 c 0,1.80626 -1.45413,3.26039 -3.26039,3.26039 l -3.47922,0 c -1.80625,0 -3.26039,-1.45413 -3.26039,-3.26039 l 0,-3.47922 c 0,-1.80625 0,-4.26039 0,-4.26039 z m 269.9999974,0.9661 9.9999996,0 0,1 -9.9999996,0 z m 3e-7,-10.94068 9.9999993,0 0,1 -9.9999993,0 z m -3e-7,0.97458 9.9999996,0 0,10 -9.9999996,0 z m -26.7396094,0 3.47922,0 c 1.806256,0 3.26039,1.45413 3.26039,3.26039 l 0,3.47922 c 0,1.80626 -1.454134,3.26039 -3.26039,3.26039 l -3.47922,0 c -1.806256,0 -3.26039,-1.45413 -3.26039,-3.26039 l 0,-3.47922 c 0,-1.80626 1.454134,-3.26039 3.26039,-3.26039 z M -70,-161 l 10,0 0,4.26039 0,3.47922 c 0,1.80626 -1.454134,3.26039 -3.26039,3.26039 l -3.47922,0 C -68.545866,-150 -70,-151.45413 -70,-153.26039 l 0,-3.47922 c 0,-1.80626 0,-4.26039 0,-4.26039 z m -30,0 10,0 0,4.26039 0,3.47922 c 0,1.80626 -1.454134,3.26039 -3.26039,3.26039 l -3.47922,0 c -1.806256,0 -3.26039,-1.45413 -3.26039,-3.26039 l 0,-3.47922 c 0,-1.80626 0,-4.26039 0,-4.26039 z m -21,11 0,-10 4.26039,0 3.47922,0 c 1.80625,0 3.26039,1.45414 3.26039,3.26039 l 0,3.47922 c 0,1.80626 -1.45414,3.26039 -3.26039,3.26039 l -3.47922,0 c -1.80626,0 -4.26039,0 -4.26039,0 z m 2,-10 0,10 -1,0 0,-10 z m -11,-0.95763 10,0 0,1 -10,0 z m -1,10.95763 0,-10 1,0 0,10 z m 1,-10 10,0 0,10 -10,0 z m 0,11 -10,0 0,-1 10,0 z m 1,-1 -11,0 0,-3.26039 0,-3.47922 c 0,-1.80625 1.45413,-3.26039 3.26039,-3.26039 l 3.47922,0 4.26039,0 0,6.73961 z m -62,0 0,-10 4.26039,0 3.47922,0 c 1.80625,0 3.26039,1.45414 3.26039,3.26039 l 0,3.47922 c 0,1.80626 -1.45414,3.26039 -3.26039,3.26039 l -3.47922,0 c -1.80626,0 -4.26039,0 -4.26039,0 z m -10,0 0,-10 1,0 0,10 z m 11,0.95763 -10,0 0,-1 10,0 z m 1,-10.95763 0,10 -1,0 0,-10 z m -1,10 -10,0 0,-10 10,0 z m -9,-10 0,10 -4.26039,0 -3.47922,0 c -1.80626,0 -3.26039,-1.45413 -3.26039,-3.26039 l 0,-3.47922 c 0,-1.80626 1.45413,-3.26039 3.26039,-3.26039 l 3.47922,0 c 1.80626,0 4.26039,0 4.26039,0 z m -51,-1 10,0 0,1 -10,0 z m -1,1 11,0 0,3.26039 0,3.47922 c 0,1.80626 -1.45414,3.26039 -3.26039,3.26039 l -3.47922,0 -4.26039,0 0,-6.73961 z m 1,11 -10,0 0,-1 10,0 z m 0.95763,-11 0,10 -1,0 0,-10 z M -260,-161 l 10,0 0,1 -10,0 z m 10,1 0,10 -10,0 0,-10 z m 259.9999974,-11 9.9999996,0 0,1 -9.9999996,0 z m -0.9576271,11 0,-10 0.9999997,0 0,10 z m 10.9576267,1 -9.9999996,0 0,-1 9.9999996,0 z m -9.9999996,-1 0,-10 9.9999996,0 0,10 z m 0.9999996,-10 0,10 -4.2603896,0 -3.47922,0 c -1.806256,0 -3.26038999,-1.45413 -3.26038999,-3.26039 l 0,-3.47922 C -2.59e-6,-168.54586 1.4541314,-170 3.2603874,-170 l 3.47922,0 c 1.806256,0 4.2603896,0 4.2603896,0 z M -30,-171 l 10,0 0,4.26039 0,3.47922 c 0,1.80626 -1.454134,3.26039 -3.26039,3.26039 l -3.47922,0 C -28.545866,-160 -30,-161.45413 -30,-163.26039 l 0,-3.47922 c 0,-1.80625 0,-4.26039 0,-4.26039 z m -41,11 0,-10 1,0 0,10 z m 1,1 0,-11 3.26039,0 3.47922,0 c 1.806256,0 3.26039,1.45413 3.26039,3.26039 l 0,3.47922 0,4.26039 -6.73961,0 z m 1,-11 0,10 -1,0 0,-10 z m -1,-1 0,11 -3.26039,0 -3.47922,0 C -78.545866,-160 -80,-161.45413 -80,-163.26039 l 0,-3.47922 0,-4.26039 6.73961,0 z m -31,11 0,-10 1,0 0,10 z m 1,1 0,-11 3.26039,0 3.47922,0 c 1.806256,0 3.26039,1.45413 3.26039,3.26039 l 0,3.47922 0,4.26039 -6.73961,0 z m 1,-11 0,10 -1,0 0,-10 z m -1,-1 0,11 -3.26039,0 -3.47922,0 c -1.80626,0 -3.26039,-1.45413 -3.26039,-3.26039 l 0,-3.47922 0,-4.26039 6.73961,0 z m -30,10.9661 10,0 0,1.00001 -10,0 z m 0,-10.94067 10,0 0,1 -10,0 z m 0,0.97457 10,0 0,10 -10,0 z m -21,10 0,-10 4.26039,0 3.47922,0 c 1.80625,0 3.26039,1.45413 3.26039,3.26039 l 0,3.47922 c 0,1.80626 -1.45414,3.26039 -3.26039,3.26039 l -3.47922,0 c -1.80626,0 -4.26039,0 -4.26039,0 z m -8.9661,-10 0,10 -1,0 0,-10 z m 10.94067,0 0,10 -1,0 0,-10 z m -0.97457,0 0,10 -10,0 0,-10 z m -9,0 0,10 -1,0 0,-10 z m -1,-1 0,11 -3.26039,0 -3.47922,0 c -1.80626,0 -3.26039,-1.45413 -3.26039,-3.26039 l 0,-3.47922 0,-4.26039 6.73961,0 z m -71,11 0,-10 4.26039,0 3.47922,0 c 1.80626,0 3.26039,1.45413 3.26039,3.26039 l 0,3.47922 c 0,1.80626 -1.45413,3.26039 -3.26039,3.26039 l -3.47922,0 c -1.80626,0 -4.26039,0 -4.26039,0 z m 2,-10 0,10 -1,0 0,-10 z m -11,-0.95762 10,0 0,1 -10,0 z m -1,10.95762 0,-10 1,0 0,10 z m 1,-10 10,0 0,10 -10,0 z m -10,9.95763 10,0 0,1 -10,0 z m 11,-9.95763 0,10 -1,0 0,-10 z m -11,-0.95762 10,0 0,1 -10,0 z m -1,10.95762 0,-10 1,0 0,10 z m 1,-10 10,0 0,10 -10,0 z m 0,11 -10,0 0,-1 10,0 z m 0.95763,-11 0,10 -1,0 0,-10 z M -260,-171 l 10,0 0,1 -10,0 z m 10,1 0,10 -10,0 0,-10 z m 259.9999974,-0.0339 9.9999996,0 0,1 -9.9999996,0 z m 3e-7,-10.94067 9.9999993,0 0,1 -9.9999993,0 z m -3e-7,0.97457 9.9999996,0 0,10 -9.9999996,0 z m -19.9999984,-1 9.99999989,0 0,1 -9.99999989,0 z m -1,1 10.99999989,0 0,3.26039 0,3.47922 c 0,1.80626 -1.45413399,3.26039 -3.26039009,3.26039 l -3.4792199,0 -4.2603899,0 0,-6.73961 z m 1.9999988,0 0,10 -0.9999998,0 0,-10 z m -10.9999998,-0.95762 10,0 0,1 -10,0 z m -1,10.95762 0,-10 1,0 0,10 z m 1,-10 10,0 0,10 -10,0 z m -11,10 0,-10 1,0 0,10 z m 11,0.95763 -10,0 0,-1 10,0 z m 1,-10.95763 0,10 -1,0 0,-10 z m -1,10 -10,0 0,-10 10,0 z M -29,-180 l 0,10 -1,0 0,-10 z m -1,-1 0,11 -3.26039,0 -3.47922,0 C -38.545866,-170 -40,-171.45413 -40,-173.26039 l 0,-3.47922 0,-4.26039 6.73961,0 z m -50.000001,10.9661 10,0 0,1 -10,0 z m 0,-10.94067 10,0 0,1 -10,0 z m 0,0.97457 10,0 0,10 -10,0 z M -110,-170.0339 l 10,0 0,1 -10,0 z m 0,-10.94067 10,0 0,1 -10,0 z m 0,0.97457 10,0 0,10 -10,0 z m -21,10 0,-10 1,0 0,10 z m 1,1 0,-11 3.26039,0 3.47922,0 c 1.80626,0 3.26039,1.45414 3.26039,3.26039 l 0,3.47922 0,4.26039 -6.73961,0 z m 1,-11 0,10 -4.26039,0 -3.47922,0 c -1.80626,0 -3.26039,-1.45413 -3.26039,-3.26039 l 0,-3.47922 c 0,-1.80625 1.45413,-3.26039 3.26039,-3.26039 l 3.47922,0 c 1.80626,0 4.26039,0 4.26039,0 z m -41,9.9661 10,0 0,1 -10,0 z m 0,-10.94067 10,0 0,1 -10,0 z m 0,0.97457 10,0 0,10 -10,0 z m -41,10 0,-10 4.26039,0 3.47922,0 c 1.80625,0 3.26039,1.45414 3.26039,3.26039 l 0,3.47922 c 0,1.80626 -1.45414,3.26039 -3.26039,3.26039 l -3.47922,0 c -1.80626,0 -4.26039,0 -4.26039,0 z m 2,-10 0,10 -4.26039,0 -3.47922,0 c -1.80626,0 -3.26039,-1.45413 -3.26039,-3.26039 l 0,-3.47922 c 0,-1.80625 1.45413,-3.26039 3.26039,-3.26039 l 3.47922,0 c 1.80625,0 4.26039,0 4.26039,0 z m -31,-1 10,0 0,1 -10,0 z m -0.95763,11 0,-10 1,0 0,10 z m 10.95763,1 -10,0 0,-1 10,0 z m -10,-1 0,-10 10,0 0,10 z m -10,-0.0424 10,0 0,1 -10,0 z m 11,-9.95763 0,10 -1,0 0,-10 z m -11,-0.95762 10,0 0,1 -10,0 z m -1,10.95762 0,-10 1,0 0,10 z m 1,-10 10,0 0,10 -10,0 z m 0,11 -10,0 0,-1 10,0 z m 1,-1 -11,0 0,-3.26039 0,-3.47922 c 0,-1.80625 1.45413,-3.26039 3.26039,-3.26039 l 3.47922,0 4.26039,0 0,6.73961 z m 257.9999974,-10 0,-10 1,0 0,10 z m 1,1 0,-11 3.2603896,0 3.47922,0 c 1.806256,0 3.26039,1.45414 3.26039,3.26039 l 0,3.47922 0,4.26039 -6.73961,0 z m -9.96610159,-11 0,10 -1.0000004,0 0,-10 z m 10.94067819,0 0,10 -1.0000004,0 0,-10 z m -0.9745766,0 0,10 -9.99999999,0 0,-10 z m -19.9999984,9.95763 9.99999949,0 0,1 -9.99999949,0 z M 0.99999889,-190 l 0,10 -1,0 0,-10 z m -10.99999989,-0.95763 9.99999989,0 0,1 -9.99999989,0 z m -1,10.95763 0,-10 1,0 0,10 z m 1,-10 9.99999989,0 0,10 -9.99999989,0 z m 0,11 -10,0 0,-1 10,0 z m 0.9999999,-1 -10.9999999,0 0,-3.26039 0,-3.47922 c 0,-1.80625 1.454134,-3.26039 3.26039,-3.26039 l 3.47922,0 4.2603899,0 0,6.73961 z m -30.9999999,-0.0339 10,0 0,1 -10,0 z m 10e-7,-10.94068 9.999999,0 0,1 -9.999999,0 z m -10e-7,0.97458 10,0 0,10 -10,0 z m -40,-1 10,0 0,1 -10,0 z m -0.957628,11 0,-10 1,0 0,10 z m 10.957628,1 -10,0 0,-1 10,0 z m -10,-1 0,-10 10,0 0,10 z m 1,-10 0,10 -4.26039,0 -3.47922,0 c -1.806256,0 -3.26039,-1.45413 -3.26039,-3.26039 l 0,-3.47922 c 0,-1.80625 1.454134,-3.26039 3.26039,-3.26039 l 3.47922,0 c 1.806256,0 4.26039,0 4.26039,0 z M -110,-180.0339 l 10,0 0,1 -10,0 z m 0,-10.94068 10,0 0,1 -10,0 z m 0,0.97458 10,0 0,10 -10,0 z m -41,10 0,-10 4.26039,0 3.47922,0 c 1.80625,0 3.26039,1.45414 3.26039,3.26039 l 0,3.47922 c 0,1.80626 -1.45414,3.26039 -3.26039,3.26039 l -3.47922,0 c -1.80626,0 -4.26039,0 -4.26039,0 z m 2,-10 0,10 -1,0 0,-10 z m -11,-0.95763 10,0 0,1 -10,0 z m -1,10.95763 0,-10 1,0 0,10 z m 1,-10 10,0 0,10 -10,0 z m -10,9.95763 10,0 0,1 -10,0 z m 11,-9.95763 0,10 -1,0 0,-10 z m -11,-0.95763 10,0 0,1 -10,0 z m -1,10.95763 0,-10 1,0 0,10 z m 1,-10 10,0 0,10 -10,0 z m 1,0 0,10 -1,0 0,-10 z m -11,-0.95763 10,0 0,1 -10,0 z m -1,10.95763 0,-10 1,0 0,10 z m 1,-10 10,0 0,10 -10,0 z m 1,0 0,10 -1,0 0,-10 z m -1,-1 0,11 -3.26039,0 -3.47922,0 c -1.80626,0 -3.26039,-1.45413 -3.26039,-3.26039 l 0,-3.47922 0,-4.26039 6.73961,0 z m -50,0 10,0 0,1 -10,0 z m -1,1 11,0 0,3.26039 0,3.47922 c 0,1.80626 -1.45413,3.26039 -3.26039,3.26039 l -3.47922,0 -4.26039,0 0,-6.73961 z m -10,10 0,-10 1,0 0,10 z m 11,0.95763 -10,0 0,-1 10,0 z m 1,-10.95763 0,10 -1,0 0,-10 z m -1,10 -10,0 0,-10 10,0 z m -10,1 -10,0 0,-1 10,0 z m 1,-1 -11,0 0,-3.26039 0,-3.47922 c 0,-1.80625 1.45413,-3.26039 3.26039,-3.26039 l 3.47922,0 4.26039,0 0,6.73961 z M 5e-8,-189 -10,-189 l 0,-4.26039 0,-3.47922 C -10,-198.54586 -8.545866,-200 -6.7396099,-200 l 3.4792199,0 c 1.8062561,0 3.260390050000001,1.45414 3.260390050000001,3.26039 l 0,3.47922 c 0,1.80626 -1e-15,4.26039 -1e-15,4.26039 z M -31,-190 l 0,-10 4.26039,0 3.47922,0 c 1.806256,0 3.26039,1.45414 3.26039,3.26039 l 0,3.47922 c 0,1.80626 -1.454134,3.26039 -3.26039,3.26039 l -3.47922,0 c -1.806256,0 -4.26039,0 -4.26039,0 z m 1,1 -10,0 0,-1 10,0 z m 1,-1 -11,0 0,-3.26039 0,-3.47922 c 0,-1.80625 1.454134,-3.26039 3.26039,-3.26039 l 3.47922,0 4.26039,0 0,6.73961 z m -31.999999,0 0,-10 4.26039,0 3.47922,0 c 1.806256,0 3.26039,1.45414 3.26039,3.26039 l 0,3.47922 c 0,1.80626 -1.454134,3.26039 -3.26039,3.26039 l -3.47922,0 c -1.806256,0 -4.26039,0 -4.26039,0 z m -8.966102,-10 0,10 -1,0 0,-10 z m 10.940678,0 0,10 -1,0 0,-10 z m -0.974576,0 0,10 -10,0 0,-10 z M -70,-189 l -10,0 0,-1 10,0 z m 1,-1 -11,0 0,-3.26039 0,-3.47922 c 0,-1.80625 1.454134,-3.26039 3.26039,-3.26039 l 3.47922,0 4.26039,0 0,6.73961 z m -41,-0.0339 10,0 0,1 -10,0 z m 0,-10.94068 10,0 0,1 -10,0 z m 0,0.97458 10,0 0,10 -10,0 z m -20,-1 10,0 0,1 -10,0 z m -1,1 11,0 0,3.26039 0,3.47922 c 0,1.80626 -1.45413,3.26039 -3.26039,3.26039 l -3.47922,0 -4.26039,0 0,-6.73961 z m 2,0 0,10 -1,0 0,-10 z m -1,-1 0,11 -3.26039,0 -3.47922,0 c -1.80626,0 -3.26039,-1.45413 -3.26039,-3.26039 l 0,-3.47922 0,-4.26039 6.73961,0 z m -30,0 10,0 0,1 -10,0 z m -0.95763,11 0,-10 1,0 0,10 z m 10.95763,1 -10,0 0,-1 10,0 z m -10,-1 0,-10 10,0 0,10 z m -10,-0.0424 10,0 0,1 -10,0 z m 11,-9.95763 0,10 -1,0 0,-10 z m -11,-0.95763 10,0 0,1 -10,0 z m -1,10.95763 0,-10 1,0 0,10 z m 1,-10 10,0 0,10 -10,0 z m -11,10 0,-10 1,0 0,10 z m 11,0.95763 -10,0 0,-1 10,0 z m 1,-10.95763 0,10 -1,0 0,-10 z m -1,10 -10,0 0,-10 10,0 z m -10,1 -10,0 0,-1 10,0 z m 1,-1 -11,0 0,-3.26039 0,-3.47922 c 0,-1.80625 1.45413,-3.26039 3.26039,-3.26039 l 3.47922,0 4.26039,0 0,6.73961 z m -27.73961,-10 3.47922,0 c 1.80625,0 3.26039,1.45413 3.26039,3.26039 l 0,3.47922 c 0,1.80626 -1.45414,3.26039 -3.26039,3.26039 l -3.47922,0 c -1.80626,0 -3.26039,-1.45413 -3.26039,-3.26039 l 0,-3.47922 c 0,-1.80626 1.45413,-3.26039 3.26039,-3.26039 z M -220,-189 l -10,0 0,-4.26039 0,-3.47922 c 0,-1.80625 1.45413,-3.26039 3.26039,-3.26039 l 3.47922,0 c 1.80625,0 3.26039,1.45414 3.26039,3.26039 l 0,3.47922 c 0,1.80626 0,4.26039 0,4.26039 z m -36.73961,-11 3.47922,0 c 1.80626,0 3.26039,1.45413 3.26039,3.26039 l 0,3.47922 c 0,1.80626 -1.45413,3.26039 -3.26039,3.26039 l -3.47922,0 c -1.80625,0 -3.26039,-1.45413 -3.26039,-3.26039 l 0,-3.47922 c 0,-1.80626 1.45414,-3.26039 3.26039,-3.26039 z M -110,-200.0339 l 10,0 0,1 -10,0 z m 0,-10.94067 10,0 0,1 -10,0 z m 0,0.97457 10,0 0,10 -10,0 z m -20,-1 10,0 0,1 -10,0 z m -0.95763,11 0,-10 1,0 0,10 z m 10.95763,1 -10,0 0,-1 10,0 z m -10,-1 0,-10 10,0 0,10 z m 0,1 -10,0 0,-1 10,0 z m 1,-1 -11,0 0,-3.26039 0,-3.47922 c 0,-1.80626 1.45413,-3.26039 3.26039,-3.26039 l 3.47922,0 4.26039,0 0,6.73961 z m -32,0 0,-10 1,0 0,10 z m 1,1 0,-11 3.26039,0 3.47922,0 c 1.80626,0 3.26039,1.45413 3.26039,3.26039 l 0,3.47922 0,4.26039 -6.73961,0 z m 0,0 -10,0 0,-1 10,0 z m 0.95763,-11 0,10 -1,0 0,-10 z M -170,-211 l 10,0 0,1 -10,0 z m 10,1 0,10 -10,0 0,-10 z m 93.26039,-10 3.47922,0 c 1.806256,0 3.26039,1.45414 3.26039,3.26039 l 0,3.47922 c 0,1.80626 -1.454134,3.26039 -3.26039,3.26039 l -3.47922,0 C -68.545866,-210 -70,-211.45413 -70,-213.26039 l 0,-3.47922 c 0,-1.80625 1.454134,-3.26039 3.26039,-3.26039 z m -20.000003,0 3.47922,0 c 1.806256,0 3.26039,1.45414 3.26039,3.26039 l 0,3.47922 c 0,1.80626 -1.454134,3.26039 -3.26039,3.26039 l -3.47922,0 c -1.806256,0 -3.26039,-1.45413 -3.26039,-3.26039 l 0,-3.47922 c 0,-1.80625 1.454134,-3.26039 3.26039,-3.26039 z M -110,-210.0339 l 10,0 0,1 -10,0 z m 0,-10.94067 10,0 0,1 -10,0 z m 0,0.97457 10,0 0,10 -10,0 z m -20,9.9661 10,0 0,1 -10,0 z m 0,-10.94067 10,0 0,1 -10,0 z m 0,0.97457 10,0 0,10 -10,0 z m -16.73961,0 3.47922,0 c 1.80625,0 3.26039,1.45414 3.26039,3.26039 l 0,3.47922 c 0,1.80626 -1.45414,3.26039 -3.26039,3.26039 l -3.47922,0 c -1.80626,0 -3.26039,-1.45413 -3.26039,-3.26039 l 0,-3.47922 c 0,-1.80625 1.45413,-3.26039 3.26039,-3.26039 z m -23.26039,9.9661 10,0 0,1 -10,0 z m 0,-10.94067 10,0 0,1 -10,0 z m 0,0.97457 10,0 0,10 -10,0 z m -20,-1 10,0 0,4.26039 0,3.47922 c 0,1.80626 -1.45414,3.26039 -3.26039,3.26039 l -3.47922,0 c -1.80626,0 -3.26039,-1.45413 -3.26039,-3.26039 l 0,-3.47922 c 0,-1.80625 0,-4.26039 0,-4.26039 z m 113.260389,-9 3.479219,0 c 1.806257,0 3.260391,1.45413 3.260391,3.26039 l 0,3.47922 c 0,1.80626 -1.454134,3.26039 -3.260391,3.26039 l -3.479219,0 c -1.806257,0 -3.260391,-1.45413 -3.260391,-3.26039 l 0,-3.47922 c 0,-1.80626 1.454134,-3.26039 3.260391,-3.26039 z M -100,-231 l 10,0 0,1 -10,0 z m -1,1 11,0 0,3.26039 0,3.47922 c 0,1.80626 -1.454134,3.26039 -3.26039,3.26039 l -3.47922,0 -4.26039,0 0,-6.73961 z m 1,11 -10,0 0,-1 10,0 z m 1,-1 -11,0 0,-3.26039 0,-3.47922 c 0,-1.80625 1.45413,-3.26039 3.26039,-3.26039 l 3.47922,0 4.26039,0 0,6.73961 z m -31,-11 10,0 0,1 -10,0 z m -0.95763,11 0,-10 1,0 0,10 z m 10.95763,1 -10,0 0,-1 10,0 z m -10,-1 0,-10 10,0 0,10 z m 1,-10 0,10 -4.26039,0 -3.47922,0 c -1.80626,0 -3.26039,-1.45413 -3.26039,-3.26039 l 0,-3.47922 c 0,-1.80626 1.45413,-3.26039 3.26039,-3.26039 l 3.47922,0 c 1.80626,0 4.26039,0 4.26039,0 z m -41,9.9661 10,0 0,1 -10,0 z m 0,-10.94068 10,0 0,1 -10,0 z m 0,0.97458 10,0 0,10 -10,0 z m -20,9.9661 10,0 0,1 -10,0 z m 0,-10.94068 10,0 0,1 -10,0 z m 0,0.97458 10,0 0,10 -10,0 z m 99.999997,1 -9.999997,0 0,-4.26039 0,-3.47922 c 0,-1.80626 1.454131,-3.26039 3.260388,-3.26039 l 3.479219,0 c 1.806257,0 3.26039,1.45413 3.26039,3.26039 l 0,3.47922 c 0,1.80626 0,4.26039 0,4.26039 z M -120,-229 l -10,0 0,-4.26039 0,-3.47922 c 0,-1.80626 1.45413,-3.26039 3.26039,-3.26039 l 3.47922,0 c 1.80625,0 3.26039,1.45413 3.26039,3.26039 l 0,3.47922 c 0,1.80626 0,4.26039 0,4.26039 z m -31,-1 0,-10 4.26039,0 3.47922,0 c 1.80625,0 3.26039,1.45413 3.26039,3.26039 l 0,3.47922 c 0,1.80626 -1.45414,3.26039 -3.26039,3.26039 l -3.47922,0 c -1.80626,0 -4.26039,0 -4.26039,0 z m -8.9661,-10 0,10 -1,0 0,-10 z m 10.94067,0 0,10 -1,0 0,-10 z m -0.97457,0 0,10 -10,0 0,-10 z m -21,10 0,-10 1,0 0,10 z m 11,0.95763 -10,0 0,-1 10,0 z m 1,-10.95763 0,10 -1,0 0,-10 z m -1,10 -10,0 0,-10 10,0 z m -19.9661,-10 0,10 -1,0 0,-10 z m 10.94068,0 0,10 -1,0 0,-10 z m -0.97458,0 0,10 -10,0 0,-10 z m -10,11 -10,0 0,-1 10,0 z m 1,-1 -11,0 0,-3.26039 0,-3.47922 c 0,-1.80626 1.45413,-3.26039 3.26039,-3.26039 l 3.47922,0 4.26039,0 0,6.73961 z m 92.260387,-20 3.47922,0 c 1.806256,0 3.26039,1.45414 3.26039,3.26039 l 0,3.47922 c 0,1.80626 -1.454134,3.26039 -3.26039,3.26039 l -3.47922,0 c -1.806256,0 -3.26039,-1.45413 -3.26039,-3.26039 l 0,-3.47922 c 0,-1.80625 1.454134,-3.26039 3.26039,-3.26039 z m -29.999997,0 3.47922,0 c 1.80625,0 3.26039,1.45414 3.26039,3.26039 l 0,3.47922 c 0,1.80626 -1.45414,3.26039 -3.26039,3.26039 l -3.47922,0 c -1.80626,0 -3.26039,-1.45413 -3.26039,-3.26039 l 0,-3.47922 c 0,-1.80625 1.45413,-3.26039 3.26039,-3.26039 z m 20,-10 3.47922,0 c 1.806256,0 3.26039,1.45414 3.26039,3.26039 l 0,3.47922 c 0,1.80626 -1.454134,3.26039 -3.26039,3.26039 l -3.47922,0 c -1.806256,0 -3.26039,-1.45413 -3.26039,-3.26039 l 0,-3.47922 c 0,-1.80625 1.454134,-3.26039 3.26039,-3.26039 z m -30,0 3.47922,0 c 1.80626,0 3.26039,1.45414 3.26039,3.26039 l 0,3.47922 c 0,1.80626 -1.45413,3.26039 -3.26039,3.26039 l -3.47922,0 c -1.80626,0 -3.26039,-1.45413 -3.26039,-3.26039 l 0,-3.47922 c 0,-1.80625 1.45413,-3.26039 3.26039,-3.26039 z M -150,-261 l 10,0 0,4.26039 0,3.47922 c 0,1.80626 -1.45414,3.26039 -3.26039,3.26039 l -3.47922,0 c -1.80626,0 -3.26039,-1.45413 -3.26039,-3.26039 l 0,-3.47922 c 0,-1.80625 0,-4.26039 0,-4.26039 z m -20,0 10,0 0,1 -10,0 z m -1,1 11,0 0,3.26039 0,3.47922 c 0,1.80626 -1.45413,3.26039 -3.26039,3.26039 l -3.47922,0 -4.26039,0 0,-6.73961 z m 2,0 0,10 -1,0 0,-10 z m -11,-0.95763 10,0 0,1 -10,0 z m -1,10.95763 0,-10 1,0 0,10 z m 1,-10 10,0 0,10 -10,0 z m 1,0 0,10 -4.26039,0 -3.47922,0 c -1.80626,0 -3.26039,-1.45413 -3.26039,-3.26039 l 0,-3.47922 c 0,-1.80625 1.45413,-3.26039 3.26039,-3.26039 l 3.47922,0 c 1.80625,0 4.26039,0 4.26039,0 z m 98.999998,-11 10.000001,0 0,4.26039 0,3.47922 c 0,1.80626 -1.454134,3.26039 -3.260391,3.26039 l -3.479219,0 c -1.806257,0 -3.260391,-1.45413 -3.260391,-3.26039 l 0,-3.47922 c 0,-1.80625 0,-4.26039 0,-4.26039 z m -36.739608,1 3.47922,0 c 1.80625,0 3.26039,1.45414 3.26039,3.26039 l 0,3.47922 c 0,1.80626 -1.45414,3.26039 -3.26039,3.26039 l -3.47922,0 c -1.80626,0 -3.26039,-1.45413 -3.26039,-3.26039 l 0,-3.47922 c 0,-1.80625 1.45413,-3.26039 3.26039,-3.26039 z m -33.26039,9.96611 10,0 0,1 -10,0 z m 0,-10.94068 10,0 0,1 -10,0 z m 0,0.97457 10,0 0,10 -10,0 z m -20,-1 10,0 0,1 -10,0 z m -0.95763,11 0,-10 1,0 0,10 z m 10.95763,1 -10,0 0,-1 10,0 z m -10,-1 0,-10 10,0 0,10 z m 0,1 -10,0 0,-1 10,0 z m 0.95763,-11 0,10 -1,0 0,-10 z M -180,-271 l 10,0 0,1 -10,0 z m 10,1 0,10 -10,0 0,-10 z m 99,0 0,-10 4.26039,0 3.47922,0 c 1.806256,0 3.26039,1.45414 3.26039,3.26039 l 0,3.47922 c 0,1.80626 -1.454134,3.26039 -3.26039,3.26039 l -3.47922,0 c -1.806256,0 -4.26039,0 -4.26039,0 z m 1,1 -10,0 0,-1 10,0 z m 1,-1 -11,0 0,-3.26039 0,-3.47922 c 0,-1.80625 1.454134,-3.26039 3.26039,-3.26039 l 3.47922,0 4.26039,0 0,6.73961 z m -72,0 0,-10 4.26039,0 3.47922,0 c 1.80626,0 3.26039,1.45414 3.26039,3.26039 l 0,3.47922 c 0,1.80626 -1.45413,3.26039 -3.26039,3.26039 l -3.47922,0 c -1.80626,0 -4.26039,0 -4.26039,0 z m 1,1 -10,0 0,-1 10,0 z m 1,-1 -11,0 0,-3.26039 0,-3.47922 c 0,-1.80625 1.45413,-3.26039 3.26039,-3.26039 l 3.47922,0 4.26039,0 0,6.73961 z m -32,0 0,-10 1,0 0,10 z m 1,1 0,-11 3.26039,0 3.47922,0 c 1.80626,0 3.26039,1.45414 3.26039,3.26039 l 0,3.47922 0,4.26039 -6.73961,0 z m 0,0 -10,0 0,-1 10,0 z m 1,-1 -11,0 0,-3.26039 0,-3.47922 c 0,-1.80625 1.45413,-3.26039 3.26039,-3.26039 l 3.47922,0 4.26039,0 0,6.73961 z" />
  </g>
</svg>
